<svg width="22" height="22" viewBox="0 0 22 22" fill="none" xmlns="http://www.w3.org/2000/svg">
<g clip-path="url(#clip0_6_14)">
<path d="M10.0501 5.3846L11.8529 3.58179L15.8247 7.49728C15.8247 7.49728 17.543 8.9339 17.543 10.5959C17.543 12.2578 15.8247 13.6381 15.8247 13.6381L11.8529 17.5818L10.0782 15.8071L14.7303 11.1551C15.0389 10.8465 15.0382 10.3459 14.7288 10.0382L10.0501 5.3846Z" fill="white"/>
<path d="M4.05007 5.3846L5.85289 3.58179L9.82472 7.49728C9.82472 7.49728 11.543 8.9339 11.543 10.5959C11.543 12.2578 9.82472 13.6381 9.82472 13.6381L5.85289 17.5818L4.07824 15.8071L8.73029 11.1551C9.03889 10.8465 9.03822 10.3459 8.72878 10.0382L4.05007 5.3846Z" fill="white"/>
</g>
<defs>
<clipPath id="clip0_6_14">
<rect width="21.6" height="21.6" fill="white"/>
</clipPath>
</defs>
</svg>
