<svg width="61" height="61" viewBox="0 0 61 61" fill="none" xmlns="http://www.w3.org/2000/svg">
<g clip-path="url(#clip0_1599_4768)">
<path d="M21.8191 29.4652V36.9652H16.9441C17.2052 36.3563 17.2289 35.6718 17.0104 35.0464C16.7918 34.421 16.347 33.9002 15.7635 33.5865C15.1801 33.2728 14.5003 33.189 13.8581 33.3517C13.2159 33.5143 12.6579 33.9116 12.2941 34.4652L10.7316 36.9652H4.31909C3.65605 36.9652 3.02017 36.7018 2.55132 36.2329C2.08248 35.7641 1.81909 35.1282 1.81909 34.4652V31.9652C1.81909 31.3021 2.08248 30.6662 2.55132 30.1974C3.02017 29.7286 3.65605 29.4652 4.31909 29.4652H21.8191ZM59.3191 14.4652H51.8191V5.71516C51.8191 4.7206 52.2142 3.76678 52.9174 3.06351C53.6207 2.36025 54.5745 1.96516 55.5691 1.96516C56.5637 1.96516 57.5175 2.36025 58.2207 3.06351C58.924 3.76678 59.3191 4.7206 59.3191 5.71516V14.4652ZM26.8191 44.4652V51.9652C26.8191 52.6282 26.5557 53.2641 26.0869 53.7329C25.618 54.2018 24.9821 54.4652 24.3191 54.4652C23.656 54.4652 23.0202 54.2018 22.5513 53.7329C22.0825 53.2641 21.8191 52.6282 21.8191 51.9652V44.4652L25.2816 42.1652C25.7358 42.3546 26.124 42.674 26.3975 43.0831C26.671 43.4923 26.8177 43.973 26.8191 44.4652ZM37.0441 52.2277C36.9778 52.8907 36.6508 53.5003 36.1351 53.9222C35.6194 54.3442 34.9571 54.544 34.2941 54.4777C33.6311 54.4114 33.0215 54.0844 32.5995 53.5687C32.1776 53.0529 31.9778 52.3907 32.0441 51.7277L32.7941 44.2277C32.8303 43.8857 32.9368 43.5549 33.1067 43.2559C33.2766 42.957 33.5063 42.6963 33.7816 42.4902L36.8191 44.4652L37.7316 43.8527C37.8816 44.4652 37.8566 44.1277 37.0441 52.2277ZM16.5441 51.7277C16.6104 52.3907 16.4106 53.0529 15.9886 53.5687C15.7797 53.824 15.5225 54.0357 15.2318 54.1917C14.941 54.3477 14.6224 54.4448 14.2941 54.4777C13.9658 54.5105 13.6342 54.4783 13.3184 54.383C13.0025 54.2877 12.7085 54.1311 12.4531 53.9222C11.9374 53.5003 11.6104 52.8907 11.5441 52.2277L10.9691 46.4777L13.7566 42.0277C14.2755 42.133 14.7476 42.4004 15.1048 42.7913C15.462 43.1822 15.6858 43.6764 15.7441 44.2027L16.5441 51.7277Z" fill="#BFBFBF"/>
<path d="M43.0691 9.46516H30.5691C30.2376 9.46516 29.9196 9.33347 29.6852 9.09905C29.4508 8.86463 29.3191 8.54668 29.3191 8.21516C29.3191 7.88364 29.4508 7.5657 29.6852 7.33128C29.9196 7.09686 30.2376 6.96516 30.5691 6.96516H43.0691C43.4006 6.96516 43.7186 7.09686 43.953 7.33128C44.1874 7.5657 44.3191 7.88364 44.3191 8.21516C44.3191 8.54668 44.1874 8.86463 43.953 9.09905C43.7186 9.33347 43.4006 9.46516 43.0691 9.46516Z" fill="#BFBFBF"/>
<path d="M46.8191 20.7152H34.3191C33.9876 20.7152 33.6696 20.5835 33.4352 20.349C33.2008 20.1146 33.0691 19.7967 33.0691 19.4652C33.0691 19.1336 33.2008 18.8157 33.4352 18.5813C33.6696 18.3469 33.9876 18.2152 34.3191 18.2152H46.8191C47.1506 18.2152 47.4686 18.3469 47.703 18.5813C47.9374 18.8157 48.0691 19.1336 48.0691 19.4652C48.0691 19.7967 47.9374 20.1146 47.703 20.349C47.4686 20.5835 47.1506 20.7152 46.8191 20.7152ZM29.3191 20.7152H26.8191C26.4876 20.7152 26.1696 20.5835 25.9352 20.349C25.7008 20.1146 25.5691 19.7967 25.5691 19.4652C25.5691 19.1336 25.7008 18.8157 25.9352 18.5813C26.1696 18.3469 26.4876 18.2152 26.8191 18.2152H29.3191C29.6506 18.2152 29.9686 18.3469 30.203 18.5813C30.4374 18.8157 30.5691 19.1336 30.5691 19.4652C30.5691 19.7967 30.4374 20.1146 30.203 20.349C29.9686 20.5835 29.6506 20.7152 29.3191 20.7152ZM46.8191 15.7152H34.3191C33.9876 15.7152 33.6696 15.5835 33.4352 15.349C33.2008 15.1146 33.0691 14.7967 33.0691 14.4652C33.0691 14.1336 33.2008 13.8157 33.4352 13.5813C33.6696 13.3469 33.9876 13.2152 34.3191 13.2152H46.8191C47.1506 13.2152 47.4686 13.3469 47.703 13.5813C47.9374 13.8157 48.0691 14.1336 48.0691 14.4652C48.0691 14.7967 47.9374 15.1146 47.703 15.349C47.4686 15.5835 47.1506 15.7152 46.8191 15.7152ZM29.3191 15.7152H26.8191C26.4876 15.7152 26.1696 15.5835 25.9352 15.349C25.7008 15.1146 25.5691 14.7967 25.5691 14.4652C25.5691 14.1336 25.7008 13.8157 25.9352 13.5813C26.1696 13.3469 26.4876 13.2152 26.8191 13.2152H29.3191C29.6506 13.2152 29.9686 13.3469 30.203 13.5813C30.4374 13.8157 30.5691 14.1336 30.5691 14.4652C30.5691 14.7967 30.4374 15.1146 30.203 15.349C29.9686 15.5835 29.6506 15.7152 29.3191 15.7152Z" fill="black"/>
<path d="M55.5691 0.715168H25.5691C24.243 0.715168 22.9712 1.24195 22.0336 2.17963C21.0959 3.11732 20.5691 4.38909 20.5691 5.71517V28.2152H4.31909C3.32453 28.2152 2.3707 28.6103 1.66744 29.3135C0.96418 30.0168 0.569092 30.9706 0.569092 31.9652L0.569092 34.4652C0.57402 35.2569 0.829428 36.0268 1.29872 36.6645C1.76802 37.3022 2.42712 37.775 3.18159 38.0152L3.99409 45.3777L2.04409 48.5027C1.67708 49.0652 1.46311 49.7137 1.42329 50.3842C1.38347 51.0547 1.51919 51.724 1.81704 52.326C2.1149 52.928 2.5646 53.442 3.12175 53.8171C3.6789 54.1923 4.32425 54.4156 4.99409 54.4652L5.20659 56.3152C5.34254 57.5438 5.92876 58.6785 6.85212 59.5002C7.77548 60.322 8.97052 60.7727 10.2066 60.7652H38.4566C39.6927 60.7727 40.8877 60.322 41.8111 59.5002C42.7344 58.6785 43.3206 57.5438 43.4566 56.3152L44.6191 45.8777V45.7152C44.9066 45.6402 44.6191 45.8277 48.0691 43.5152C51.3816 45.7152 51.2941 45.7152 51.8191 45.7152C52.1506 45.7152 52.4686 45.5835 52.703 45.3491C52.9374 45.1146 53.0691 44.7967 53.0691 44.4652V15.7152H59.3191C59.6506 15.7152 59.9686 15.5835 60.203 15.3491C60.4374 15.1146 60.5691 14.7967 60.5691 14.4652V5.71517C60.5691 4.38909 60.0423 3.11732 59.1046 2.17963C58.1669 1.24195 56.8952 0.715168 55.5691 0.715168ZM3.06909 34.4652V31.9652C3.06909 31.6336 3.20079 31.3157 3.43521 31.0813C3.66963 30.8469 3.98757 30.7152 4.31909 30.7152H20.5691V35.7152H18.4191C18.3894 34.8825 18.093 34.0813 17.5735 33.4299C17.054 32.7784 16.3389 32.3111 15.5337 32.0968C14.7285 31.8826 13.8757 31.9327 13.1011 32.2398C12.3266 32.547 11.6712 33.0948 11.2316 33.8027L10.0316 35.7152H4.31909C3.98757 35.7152 3.66963 35.5835 3.43521 35.3491C3.20079 35.1146 3.06909 34.7967 3.06909 34.4652ZM8.46909 38.2152L6.13159 41.9652L5.71909 38.2152H8.46909ZM6.54409 51.3027C6.42041 51.5126 6.24407 51.6866 6.03252 51.8076C5.82096 51.9285 5.58151 51.9921 5.33784 51.9921C5.09417 51.9921 4.85472 51.9285 4.64317 51.8076C4.43161 51.6866 4.25527 51.5126 4.13159 51.3027C3.99978 51.0907 3.92992 50.846 3.92992 50.5964C3.92992 50.3468 3.99978 50.1022 4.13159 49.8902L13.3066 35.1902C13.4303 34.9802 13.6066 34.8062 13.8182 34.6853C14.0297 34.5644 14.2692 34.5008 14.5128 34.5008C14.7565 34.5008 14.996 34.5644 15.2075 34.6853C15.4191 34.8062 15.5954 34.9802 15.7191 35.1902C15.8509 35.4022 15.9208 35.6468 15.9208 35.8964C15.9208 36.146 15.8509 36.3907 15.7191 36.6027L6.54409 51.3027ZM40.9566 55.9902C40.8886 56.6045 40.5955 57.1718 40.1338 57.5827C39.6721 57.9936 39.0746 58.2189 38.4566 58.2152H10.1816C9.56356 58.2189 8.96604 57.9936 8.50436 57.5827C8.04268 57.1718 7.74957 56.6045 7.68159 55.9902L7.44409 53.8277C8.51909 53.1402 7.95659 53.7527 17.6691 38.2152H20.5691V44.4652C20.5703 44.6903 20.6322 44.9109 20.7483 45.1037C20.8645 45.2965 21.0306 45.4544 21.229 45.5607C21.4274 45.6669 21.6509 45.7176 21.8758 45.7074C22.1006 45.6972 22.3186 45.6265 22.5066 45.5027L25.5691 43.4652L28.6441 45.5027C28.8495 45.6397 29.0909 45.7129 29.3378 45.7129C29.5848 45.7129 29.8262 45.6397 30.0316 45.5027L33.0691 43.4652L36.1066 45.5027C36.312 45.6397 36.5534 45.7129 36.8003 45.7129C37.0473 45.7129 37.2887 45.6397 37.4941 45.5027L40.5691 43.4652L42.2191 44.5652C42.2066 44.7402 41.0816 54.9027 40.9566 55.9902ZM50.5691 5.71517V42.1402L48.7566 40.8902C48.5525 40.7558 48.3135 40.6841 48.0691 40.6841C47.8247 40.6841 47.5857 40.7558 47.3816 40.8902L44.3191 42.9652L41.2566 40.9277C41.0525 40.7933 40.8135 40.7216 40.5691 40.7216C40.3247 40.7216 40.0857 40.7933 39.8816 40.9277L36.8191 42.9652L33.7816 40.9277C33.5762 40.7906 33.3348 40.7175 33.0878 40.7175C32.8409 40.7175 32.5995 40.7906 32.3941 40.9277L29.3191 42.9652L26.2441 40.9277C26.04 40.7933 25.801 40.7216 25.5566 40.7216C25.3122 40.7216 25.0732 40.7933 24.8691 40.9277L23.0566 42.1777V5.71517C23.0566 5.05213 23.32 4.41624 23.7888 3.9474C24.2577 3.47856 24.8936 3.21517 25.5566 3.21517H51.2691C50.8147 3.97016 50.5728 4.83397 50.5691 5.71517ZM58.0691 13.2152H53.0691V5.71517C53.0691 5.05213 53.3325 4.41624 53.8013 3.9474C54.2702 3.47856 54.9061 3.21517 55.5691 3.21517C56.2321 3.21517 56.868 3.47856 57.3369 3.9474C57.8057 4.41624 58.0691 5.05213 58.0691 5.71517V13.2152Z" fill="black"/>
</g>
<defs>
<clipPath id="clip0_1599_4768">
<rect width="60" height="60" fill="white" transform="translate(0.569336 0.715164)"/>
</clipPath>
</defs>
</svg>
