<svg width="61" height="61" viewBox="0 0 61 61" fill="none" xmlns="http://www.w3.org/2000/svg">
<path d="M40.5208 6.40613V46.4061H36.7708L33.0208 47.6561L29.2708 46.4061L25.5208 47.6561L21.7708 46.4061L18.0208 47.6561L14.2708 46.4061L10.5208 47.6561V6.40613C10.5208 5.41157 10.1257 4.45774 9.4224 3.75448C8.71914 3.05122 7.76531 2.65613 6.77075 2.65613H36.7708C37.7653 2.65613 38.7191 3.05122 39.4224 3.75448C40.1257 4.45774 40.5208 5.41157 40.5208 6.40613Z" fill="#F8F8F8"/>
<path d="M38.0208 42.6561H33.0208C32.6892 42.6561 32.3713 42.5244 32.1369 42.29C31.9024 42.0556 31.7708 41.7376 31.7708 41.4061C31.7708 41.0746 31.9024 40.7567 32.1369 40.5222C32.3713 40.2878 32.6892 40.1561 33.0208 40.1561H38.0208C38.3523 40.1561 38.6702 40.2878 38.9046 40.5222C39.1391 40.7567 39.2708 41.0746 39.2708 41.4061C39.2708 41.7376 39.1391 42.0556 38.9046 42.29C38.6702 42.5244 38.3523 42.6561 38.0208 42.6561ZM28.0208 42.6561H25.5208C25.1892 42.6561 24.8713 42.5244 24.6369 42.29C24.4024 42.0556 24.2708 41.7376 24.2708 41.4061C24.2708 41.0746 24.4024 40.7567 24.6369 40.5222C24.8713 40.2878 25.1892 40.1561 25.5208 40.1561H28.0208C28.3523 40.1561 28.6702 40.2878 28.9046 40.5222C29.1391 40.7567 29.2708 41.0746 29.2708 41.4061C29.2708 41.7376 29.1391 42.0556 28.9046 42.29C28.6702 42.5244 28.3523 42.6561 28.0208 42.6561ZM20.5208 42.6561H18.0208C17.6892 42.6561 17.3713 42.5244 17.1369 42.29C16.9024 42.0556 16.7708 41.7376 16.7708 41.4061C16.7708 41.0746 16.9024 40.7567 17.1369 40.5222C17.3713 40.2878 17.6892 40.1561 18.0208 40.1561H20.5208C20.8523 40.1561 21.1702 40.2878 21.4046 40.5222C21.6391 40.7567 21.7708 41.0746 21.7708 41.4061C21.7708 41.7376 21.6391 42.0556 21.4046 42.29C21.1702 42.5244 20.8523 42.6561 20.5208 42.6561ZM13.0208 42.6561H10.5208C10.1892 42.6561 9.87129 42.5244 9.63687 42.29C9.40245 42.0556 9.27075 41.7376 9.27075 41.4061C9.27075 41.0746 9.40245 40.7567 9.63687 40.5222C9.87129 40.2878 10.1892 40.1561 10.5208 40.1561H13.0208C13.3523 40.1561 13.6702 40.2878 13.9046 40.5222C14.1391 40.7567 14.2708 41.0746 14.2708 41.4061C14.2708 41.7376 14.1391 42.0556 13.9046 42.29C13.6702 42.5244 13.3523 42.6561 13.0208 42.6561Z" fill="#ABABAB"/>
<path d="M10.5208 15.1561H3.02075V6.40613C3.02075 5.41157 3.41584 4.45774 4.1191 3.75448C4.82236 3.05122 5.77619 2.65613 6.77075 2.65613C7.76531 2.65613 8.71914 3.05122 9.4224 3.75448C10.1257 4.45774 10.5208 5.41157 10.5208 6.40613V15.1561Z" fill="#C2C2C2"/>
<path d="M33.0208 7.65613H18.0208C17.3304 7.65613 16.7708 8.21577 16.7708 8.90613V11.4061C16.7708 12.0965 17.3304 12.6561 18.0208 12.6561H33.0208C33.7111 12.6561 34.2708 12.0965 34.2708 11.4061V8.90613C34.2708 8.21577 33.7111 7.65613 33.0208 7.65613Z" fill="#C2C2C2"/>
<path d="M18.0208 18.9061H15.5208C15.1892 18.9061 14.8713 18.7744 14.6369 18.54C14.4024 18.3056 14.2708 17.9876 14.2708 17.6561C14.2708 17.3246 14.4024 17.0067 14.6369 16.7722C14.8713 16.5378 15.1892 16.4061 15.5208 16.4061H18.0208C18.3523 16.4061 18.6702 16.5378 18.9046 16.7722C19.1391 17.0067 19.2708 17.3246 19.2708 17.6561C19.2708 17.9876 19.1391 18.3056 18.9046 18.54C18.6702 18.7744 18.3523 18.9061 18.0208 18.9061ZM35.5208 18.9061H23.0208C22.6892 18.9061 22.3713 18.7744 22.1369 18.54C21.9024 18.3056 21.7708 17.9876 21.7708 17.6561C21.7708 17.3246 21.9024 17.0067 22.1369 16.7722C22.3713 16.5378 22.6892 16.4061 23.0208 16.4061H35.5208C35.8523 16.4061 36.1702 16.5378 36.4046 16.7722C36.6391 17.0067 36.7708 17.3246 36.7708 17.6561C36.7708 17.9876 36.6391 18.3056 36.4046 18.54C36.1702 18.7744 35.8523 18.9061 35.5208 18.9061ZM18.0208 23.9061H15.5208C15.1892 23.9061 14.8713 23.7744 14.6369 23.54C14.4024 23.3056 14.2708 22.9876 14.2708 22.6561C14.2708 22.3246 14.4024 22.0067 14.6369 21.7722C14.8713 21.5378 15.1892 21.4061 15.5208 21.4061H18.0208C18.3523 21.4061 18.6702 21.5378 18.9046 21.7722C19.1391 22.0067 19.2708 22.3246 19.2708 22.6561C19.2708 22.9876 19.1391 23.3056 18.9046 23.54C18.6702 23.7744 18.3523 23.9061 18.0208 23.9061ZM35.5208 23.9061H23.0208C22.6892 23.9061 22.3713 23.7744 22.1369 23.54C21.9024 23.3056 21.7708 22.9876 21.7708 22.6561C21.7708 22.3246 21.9024 22.0067 22.1369 21.7722C22.3713 21.5378 22.6892 21.4061 23.0208 21.4061H35.5208C35.8523 21.4061 36.1702 21.5378 36.4046 21.7722C36.6391 22.0067 36.7708 22.3246 36.7708 22.6561C36.7708 22.9876 36.6391 23.3056 36.4046 23.54C36.1702 23.7744 35.8523 23.9061 35.5208 23.9061ZM23.0208 30.1561H15.5208C15.1892 30.1561 14.8713 30.0244 14.6369 29.79C14.4024 29.5556 14.2708 29.2376 14.2708 28.9061C14.2708 28.5746 14.4024 28.2567 14.6369 28.0222C14.8713 27.7878 15.1892 27.6561 15.5208 27.6561H23.0208C23.3523 27.6561 23.6702 27.7878 23.9046 28.0222C24.1391 28.2567 24.2708 28.5746 24.2708 28.9061C24.2708 29.2376 24.1391 29.5556 23.9046 29.79C23.6702 30.0244 23.3523 30.1561 23.0208 30.1561Z" fill="#C2C2C2"/>
<path d="M49.5458 39.4562L44.4333 34.9937L28.0208 51.4062L29.4708 52.3687C30.1364 52.8154 30.9278 53.037 31.7287 53.001C32.5295 52.965 33.2978 52.6733 33.9208 52.1687L49.5458 39.4562Z" fill="#F8F8F8"/>
<path d="M58.0206 31.4061C58.0217 30.4934 57.8228 29.5915 57.438 28.7639C57.0532 27.9362 56.4919 27.2029 55.7933 26.6155C55.0948 26.028 54.2761 25.6007 53.3947 25.3635C52.5133 25.1263 51.5907 25.0851 50.6917 25.2426C49.7927 25.4002 48.9391 25.7527 48.1909 26.2755C47.4427 26.7983 46.8181 27.4786 46.361 28.2686C45.9039 29.0586 45.6253 29.9391 45.5449 30.8483C45.4645 31.7574 45.5842 32.6732 45.8956 33.5311L44.4331 34.9936L49.5456 39.4561L51.7706 37.6561C53.4282 37.6561 55.0179 36.9977 56.19 35.8256C57.3621 34.6534 58.0206 33.0637 58.0206 31.4061Z" fill="#C2C2C2"/>
<path d="M51.7708 33.9061C53.1515 33.9061 54.2708 32.7868 54.2708 31.4061C54.2708 30.0254 53.1515 28.9061 51.7708 28.9061C50.39 28.9061 49.2708 30.0254 49.2708 31.4061C49.2708 32.7868 50.39 33.9061 51.7708 33.9061Z" fill="#F8F8F8"/>
<path d="M49.5458 43.356L44.4333 47.8185L28.0208 31.406L29.4708 30.4435C30.1364 29.9968 30.9278 29.7752 31.7287 29.8112C32.5295 29.8472 33.2978 30.1389 33.9208 30.6435L49.5458 43.356Z" fill="#F8F8F8"/>
<path d="M58.0206 51.4062C58.0217 52.3189 57.8228 53.2208 57.438 54.0484C57.0532 54.8761 56.4919 55.6094 55.7933 56.1969C55.0948 56.7843 54.2761 57.2117 53.3947 57.4488C52.5133 57.686 51.5907 57.7273 50.6917 57.5697C49.7927 57.4121 48.9391 57.0596 48.1909 56.5368C47.4427 56.0141 46.8181 55.3338 46.361 54.5438C45.9039 53.7538 45.6253 52.8732 45.5449 51.9641C45.4645 51.0549 45.5842 50.1392 45.8956 49.2812L44.4331 47.8187L49.5456 43.3562L51.7706 45.1562C53.4282 45.1562 55.0179 45.8147 56.19 46.9868C57.3621 48.1589 58.0206 49.7486 58.0206 51.4062Z" fill="#C2C2C2"/>
<path d="M52.2332 43.9061L49.1458 41.4061L52.2332 38.9061C53.7702 38.8111 55.2407 38.2453 56.445 37.2856C57.6493 36.3258 58.5289 35.0186 58.9644 33.5416C59.3999 32.0645 59.3702 30.4892 58.8793 29.0296C58.3885 27.57 57.4602 26.2969 56.2206 25.3832C54.981 24.4695 53.4902 23.9596 51.9508 23.9226C50.4113 23.8856 48.8977 24.3234 47.6157 25.1765C46.3337 26.0296 45.3453 27.2566 44.7849 28.691C44.2245 30.1253 44.1192 31.6974 44.4832 33.1936L41.9832 35.6936L41.7708 35.4186V6.40613C41.7708 5.08005 41.244 3.80828 40.3063 2.87059C39.3686 1.93291 38.0968 1.40613 36.7708 1.40613H6.77075C5.44467 1.40613 4.1729 1.93291 3.23522 2.87059C2.29754 3.80828 1.77075 5.08005 1.77075 6.40613V15.1561C1.77075 15.4876 1.90245 15.8056 2.13687 16.04C2.37129 16.2744 2.68923 16.4061 3.02075 16.4061H9.27075V47.6561C9.25991 47.8601 9.29922 48.0636 9.38524 48.2489C9.47126 48.4341 9.60136 48.5955 9.76417 48.7188C9.92698 48.8422 10.1175 48.9237 10.3192 48.9564C10.5208 48.989 10.7273 48.9718 10.9208 48.9061L14.2708 47.7811L17.6333 48.9061C18.1833 49.0811 18.1958 48.9811 21.7833 47.7811C25.3958 49.0311 25.3958 49.0311 25.9333 48.9061L29.2833 47.7811L29.7708 47.9436L27.1333 50.5811C27.0013 50.7123 26.9003 50.8712 26.8375 51.0464C26.7748 51.2216 26.752 51.4085 26.7708 51.5936C26.8458 52.3061 27.2208 52.4311 28.7833 53.4811C29.6722 54.0719 30.7269 54.3627 31.793 54.3109C32.8591 54.2592 33.8807 53.8677 34.7083 53.1936L42.0332 47.2436L44.5332 49.7436C44.1944 51.2438 44.3249 52.8119 44.9071 54.2354C45.4893 55.659 46.4951 56.8691 47.7881 57.7018C49.0812 58.5345 50.599 58.9496 52.1358 58.8908C53.6727 58.8319 55.1543 58.3021 56.3799 57.3729C57.6055 56.4438 58.5158 55.1603 58.9875 53.6964C59.4592 52.2325 59.4694 50.659 59.0168 49.1892C58.5642 47.7193 57.6706 46.4241 56.4572 45.4791C55.2438 44.5341 53.7692 43.9849 52.2332 43.9061ZM46.7708 34.4186C46.9411 34.2488 47.0588 34.0335 47.1098 33.7985C47.1607 33.5635 47.1429 33.3187 47.0583 33.0936C46.8599 32.5535 46.7625 31.9815 46.7708 31.4061C46.7708 30.4172 47.064 29.4505 47.6134 28.6283C48.1628 27.806 48.9437 27.1652 49.8573 26.7867C50.771 26.4083 51.7763 26.3093 52.7462 26.5022C53.7161 26.6951 54.607 27.1713 55.3063 27.8706C56.0055 28.5699 56.4818 29.4608 56.6747 30.4307C56.8676 31.4006 56.7686 32.4059 56.3902 33.3195C56.0117 34.2332 55.3708 35.0141 54.5486 35.5635C53.7264 36.1129 52.7597 36.4061 51.7708 36.4061C51.1458 36.4061 51.2208 36.4936 47.1583 39.7936L43.9833 37.2186L46.7708 34.4186ZM4.27075 13.9061V6.40613C4.27075 5.74309 4.53414 5.1072 5.00299 4.63836C5.47183 4.16952 6.10771 3.90613 6.77075 3.90613C7.43379 3.90613 8.06968 4.16952 8.53852 4.63836C9.00736 5.1072 9.27075 5.74309 9.27075 6.40613V13.9061H4.27075ZM29.6708 45.1561C29.1583 44.9811 29.1583 45.0686 25.5333 46.2811C21.9208 45.0311 21.9208 45.0311 21.3833 45.1561L18.0208 46.4061L14.6583 45.2811C14.1708 45.1061 14.0458 45.2811 11.7583 45.9811V6.40613C11.7567 5.52798 11.5239 4.66573 11.0833 3.90613H36.7708C37.4338 3.90613 38.0697 4.16952 38.5385 4.63836C39.0074 5.1072 39.2708 5.74309 39.2708 6.40613V33.3936L34.7083 29.6436C33.8807 28.9696 32.8591 28.578 31.793 28.5263C30.7269 28.4746 29.6722 28.7654 28.7833 29.3561L27.3333 30.3311C27.1785 30.4329 27.0484 30.5678 26.9522 30.7261C26.8559 30.8843 26.7961 31.062 26.777 31.2462C26.7578 31.4304 26.7799 31.6166 26.8415 31.7913C26.9031 31.9659 27.0028 32.1247 27.1333 32.2561L36.2583 41.4061L31.7708 45.9186L29.6708 45.1561ZM33.1208 51.1311C32.6763 51.4893 32.1228 51.6846 31.552 51.6846C30.9812 51.6846 30.4277 51.4893 29.9833 51.1311L38.0208 43.1686L40.2458 45.4061L33.1208 51.1311ZM54.8083 55.3061C54.0723 55.8691 53.1945 56.2165 52.2726 56.3096C51.3507 56.4027 50.4211 56.2378 49.5875 55.8333C48.7539 55.4288 48.0491 54.8007 47.5517 54.0189C47.0543 53.2372 46.7839 52.3326 46.7708 51.4061C46.7665 50.83 46.8682 50.258 47.0708 49.7186C47.1538 49.4924 47.1697 49.2469 47.1165 49.0118C47.0632 48.7767 46.9432 48.562 46.7708 48.3936L29.9833 31.6061C30.4277 31.248 30.9812 31.0527 31.552 31.0527C32.1228 31.0527 32.6763 31.248 33.1208 31.6061C52.6958 47.5311 51.1333 46.4061 51.7708 46.4061C52.8139 46.4086 53.8301 46.7372 54.6771 47.346C55.5241 47.9548 56.1595 48.8133 56.4943 49.8012C56.8292 50.7891 56.8466 51.857 56.5443 52.8554C56.2419 53.8537 55.6349 54.7325 54.8083 55.3686V55.3061Z" fill="black"/>
<path d="M51.7708 53.9061C53.1515 53.9061 54.2708 52.7868 54.2708 51.4061C54.2708 50.0254 53.1515 48.9061 51.7708 48.9061C50.39 48.9061 49.2708 50.0254 49.2708 51.4061C49.2708 52.7868 50.39 53.9061 51.7708 53.9061Z" fill="#F8F8F8"/>
<path d="M41.7708 42.6561C42.4611 42.6561 43.0208 42.0965 43.0208 41.4061C43.0208 40.7158 42.4611 40.1561 41.7708 40.1561C41.0804 40.1561 40.5208 40.7158 40.5208 41.4061C40.5208 42.0965 41.0804 42.6561 41.7708 42.6561Z" fill="#C2C2C2"/>
</svg>
