<svg width="61" height="61" viewBox="0 0 61 61" fill="none" xmlns="http://www.w3.org/2000/svg">
<g clip-path="url(#clip0_1599_4774)">
<path d="M17.5251 21.9652H7.52515V26.9652H17.5251V21.9652Z" fill="#BFBFBF"/>
<path d="M46.2751 53.2152C51.1076 53.2152 55.0251 49.2977 55.0251 44.4652C55.0251 39.6327 51.1076 35.7152 46.2751 35.7152C41.4427 35.7152 37.5251 39.6327 37.5251 44.4652C37.5251 49.2977 41.4427 53.2152 46.2751 53.2152Z" fill="#BFBFBF"/>
<path d="M58.7751 11.9652V36.9652C58.7751 37.9597 58.3801 38.9136 57.6768 39.6168C56.9735 40.3201 56.0197 40.7152 55.0251 40.7152H54.1751C53.6503 39.6069 52.8983 38.6214 51.968 37.8225C51.0378 37.0236 49.9499 36.4291 48.7751 36.0777V19.4652C48.7751 18.4706 48.3801 17.5168 47.6768 16.8135C46.9735 16.1103 46.0197 15.7152 45.0251 15.7152H11.2751V11.9652C11.2751 10.9706 11.6702 10.0168 12.3735 9.31351C13.0768 8.61025 14.0306 8.21516 15.0251 8.21516H55.0251C56.0197 8.21516 56.9735 8.61025 57.6768 9.31351C58.3801 10.0168 58.7751 10.9706 58.7751 11.9652Z" fill="#BFBFBF"/>
<path d="M17.5251 28.2152H7.52515C7.19363 28.2152 6.87568 28.0835 6.64126 27.849C6.40684 27.6146 6.27515 27.2967 6.27515 26.9652V21.9652C6.27515 21.6336 6.40684 21.3157 6.64126 21.0813C6.87568 20.8469 7.19363 20.7152 7.52515 20.7152H17.5251C17.8567 20.7152 18.1746 20.8469 18.409 21.0813C18.6434 21.3157 18.7751 21.6336 18.7751 21.9652V26.9652C18.7751 27.2967 18.6434 27.6146 18.409 27.849C18.1746 28.0835 17.8567 28.2152 17.5251 28.2152ZM8.77515 25.7152H16.2751V23.2152H8.77515V25.7152ZM12.5251 43.2152H7.52515C7.19363 43.2152 6.87568 43.0835 6.64126 42.849C6.40684 42.6146 6.27515 42.2967 6.27515 41.9652C6.27515 41.6336 6.40684 41.3157 6.64126 41.0813C6.87568 40.8469 7.19363 40.7152 7.52515 40.7152H12.5251C12.8567 40.7152 13.1746 40.8469 13.409 41.0813C13.6435 41.3157 13.7751 41.6336 13.7751 41.9652C13.7751 42.2967 13.6435 42.6146 13.409 42.849C13.1746 43.0835 12.8567 43.2152 12.5251 43.2152ZM22.5251 43.2152H17.5251C17.1936 43.2152 16.8757 43.0835 16.6413 42.849C16.4068 42.6146 16.2751 42.2967 16.2751 41.9652C16.2751 41.6336 16.4068 41.3157 16.6413 41.0813C16.8757 40.8469 17.1936 40.7152 17.5251 40.7152H22.5251C22.8567 40.7152 23.1746 40.8469 23.409 41.0813C23.6435 41.3157 23.7751 41.6336 23.7751 41.9652C23.7751 42.2967 23.6435 42.6146 23.409 42.849C23.1746 43.0835 22.8567 43.2152 22.5251 43.2152ZM32.5251 43.2152H27.5251C27.1936 43.2152 26.8757 43.0835 26.6413 42.849C26.4068 42.6146 26.2751 42.2967 26.2751 41.9652C26.2751 41.6336 26.4068 41.3157 26.6413 41.0813C26.8757 40.8469 27.1936 40.7152 27.5251 40.7152H32.5251C32.8567 40.7152 33.1746 40.8469 33.409 41.0813C33.6435 41.3157 33.7751 41.6336 33.7751 41.9652C33.7751 42.2967 33.6435 42.6146 33.409 42.849C33.1746 43.0835 32.8567 43.2152 32.5251 43.2152Z" fill="#424242"/>
<path d="M32.5251 38.2152H7.52515C7.19363 38.2152 6.87568 38.0835 6.64126 37.849C6.40684 37.6146 6.27515 37.2967 6.27515 36.9652C6.27515 36.6336 6.40684 36.3157 6.64126 36.0813C6.87568 35.8469 7.19363 35.7152 7.52515 35.7152H32.5251C32.8567 35.7152 33.1746 35.8469 33.409 36.0813C33.6435 36.3157 33.7751 36.6336 33.7751 36.9652C33.7751 37.2967 33.6435 37.6146 33.409 37.849C33.1746 38.0835 32.8567 38.2152 32.5251 38.2152Z" fill="#BFBFBF"/>
<path d="M55.0251 6.96516H15.0251C13.6991 6.96516 12.4273 7.49195 11.4896 8.42963C10.5519 9.36731 10.0251 10.6391 10.0251 11.9652V14.4652H5.02515C3.69906 14.4652 2.42729 14.9919 1.48961 15.9296C0.551931 16.8673 0.0251465 18.1391 0.0251465 19.4652L0.0251465 44.4652C0.0251465 45.7912 0.551931 47.063 1.48961 48.0007C2.42729 48.9384 3.69906 49.4652 5.02515 49.4652H37.6251C38.8473 51.5473 40.7814 53.117 43.0705 53.8845C45.3596 54.6519 47.8491 54.5653 50.0793 53.6406C52.3096 52.716 54.1299 51.0156 55.2044 48.8536C56.2789 46.6915 56.5349 44.2137 55.9251 41.8777C57.075 41.6673 58.1148 41.0606 58.8639 40.1631C59.6129 39.2657 60.0238 38.1341 60.0251 36.9652V11.9652C60.0251 10.6391 59.4984 9.36731 58.5607 8.42963C57.623 7.49195 56.3512 6.96516 55.0251 6.96516ZM5.02515 46.9652C4.36211 46.9652 3.72622 46.7018 3.25738 46.2329C2.78854 45.7641 2.52515 45.1282 2.52515 44.4652V19.4652C2.52515 18.8021 2.78854 18.1662 3.25738 17.6974C3.72622 17.2286 4.36211 16.9652 5.02515 16.9652H45.0251C45.6882 16.9652 46.3241 17.2286 46.7929 17.6974C47.2618 18.1662 47.5251 18.8021 47.5251 19.4652V34.5527C45.9074 34.3505 44.2648 34.547 42.7403 35.1249C41.2159 35.7028 39.8559 36.6447 38.7787 37.8685C37.7016 39.0923 36.94 40.5609 36.5603 42.1464C36.1806 43.7319 36.1943 45.3862 36.6001 46.9652H5.02515ZM46.2751 51.9652C44.7918 51.9652 43.3417 51.5253 42.1084 50.7012C40.875 49.8771 39.9137 48.7057 39.3461 47.3353C38.7784 45.9648 38.6299 44.4568 38.9193 43.002C39.2086 41.5471 39.923 40.2108 40.9718 39.1619C42.0207 38.113 43.3571 37.3987 44.812 37.1093C46.2668 36.8199 47.7748 36.9684 49.1453 37.5361C50.5157 38.1037 51.6871 39.065 52.5112 40.2984C53.3353 41.5318 53.7751 42.9818 53.7751 44.4652C53.7751 46.4543 52.985 48.3619 51.5784 49.7685C50.1719 51.175 48.2643 51.9652 46.2751 51.9652ZM57.5251 36.9652C57.5251 37.6282 57.2618 38.2641 56.7929 38.7329C56.3241 39.2018 55.6882 39.4652 55.0251 39.4652H54.9251C53.8071 37.5424 52.0842 36.0437 50.0251 35.2027V19.4652C50.0251 18.1391 49.4984 16.8673 48.5607 15.9296C47.623 14.9919 46.3512 14.4652 45.0251 14.4652H12.5251V11.9652C12.5251 11.3021 12.7885 10.6662 13.2574 10.1974C13.7262 9.72856 14.3621 9.46516 15.0251 9.46516H55.0251C55.6882 9.46516 56.3241 9.72856 56.7929 10.1974C57.2618 10.6662 57.5251 11.3021 57.5251 11.9652V36.9652Z" fill="#424242"/>
<path d="M50.9126 42.8527L45.9126 47.8527C45.7958 47.9685 45.6573 48.0602 45.505 48.1224C45.3527 48.1846 45.1896 48.2161 45.0251 48.2152C44.3501 48.2152 44.3126 48.0277 41.6376 45.3527C41.4023 45.1173 41.27 44.798 41.27 44.4652C41.27 44.1323 41.4023 43.813 41.6376 43.5777C41.873 43.3423 42.1923 43.2101 42.5251 43.2101C42.858 43.2101 43.1773 43.3423 43.4126 43.5777L45.0251 45.2027L49.1376 41.0777C49.373 40.8423 49.6923 40.7101 50.0251 40.7101C50.358 40.7101 50.6773 40.8423 50.9126 41.0777C51.148 41.313 51.2803 41.6323 51.2803 41.9652C51.2803 42.298 51.148 42.6173 50.9126 42.8527Z" fill="#424242"/>
<path d="M37.5252 21.6902C36.9876 21.2015 36.3197 20.8796 35.6026 20.7634C34.8855 20.6473 34.15 20.7419 33.4857 21.0358C32.8214 21.3297 32.2567 21.8103 31.8603 22.4191C31.4639 23.0279 31.2529 23.7387 31.2529 24.4652C31.2529 25.1916 31.4639 25.9024 31.8603 26.5112C32.2567 27.12 32.8214 27.6006 33.4857 27.8945C34.15 28.1884 34.8855 28.2831 35.6026 28.1669C36.3197 28.0507 36.9876 27.7288 37.5252 27.2402C38.0628 27.7288 38.7307 28.0507 39.4478 28.1669C40.1649 28.2831 40.9004 28.1884 41.5647 27.8945C42.2291 27.6006 42.7937 27.12 43.1901 26.5112C43.5865 25.9024 43.7975 25.1916 43.7975 24.4652C43.7975 23.7387 43.5865 23.0279 43.1901 22.4191C42.7937 21.8103 42.2291 21.3297 41.5647 21.0358C40.9004 20.7419 40.1649 20.6473 39.4478 20.7634C38.7307 20.8796 38.0628 21.2015 37.5252 21.6902Z" fill="#AAAAAA"/>
</g>
<defs>
<clipPath id="clip0_1599_4774">
<rect width="60" height="60" fill="white" transform="translate(0.0251465 0.715164)"/>
</clipPath>
</defs>
</svg>
