<svg width="57" height="57" viewBox="0 0 57 57" fill="none" xmlns="http://www.w3.org/2000/svg">
<rect width="56.5828" height="56.5828" rx="11.7881" fill="#3103EB"/>
<path d="M38.6675 15.1873H36.9935V14.116C36.9935 13.4991 36.4944 13 35.8775 13C35.2607 13 34.7616 13.4991 34.7616 14.116V15.1873H22.4858V14.116C22.4858 13.4991 21.9867 13 21.3698 13C20.753 13 20.2539 13.4991 20.2539 14.116V15.1873H18.5799C15.5033 15.1873 13 17.6906 13 20.7672V38.6675C13 41.744 15.5033 44.2474 18.5799 44.2474H38.6675C41.744 44.2474 44.2474 41.744 44.2474 38.6675V20.7672C44.2474 17.6906 41.744 15.1873 38.6675 15.1873ZM15.232 20.7672C15.232 18.921 16.7337 17.4192 18.5799 17.4192H20.2539V18.4905C20.2539 19.1074 20.753 19.6065 21.3698 19.6065C21.9867 19.6065 22.4858 19.1074 22.4858 18.4905V17.4192H34.7616V18.4905C34.7616 19.1074 35.2607 19.6065 35.8775 19.6065C36.4944 19.6065 36.9935 19.1074 36.9935 18.4905V17.4192H38.6675C40.5136 17.4192 42.0154 18.921 42.0154 20.7672V21.894H15.232V20.7672ZM38.6675 42.0154H18.5799C16.7337 42.0154 15.232 40.5136 15.232 38.6675V24.126H42.0154V38.6675C42.0154 40.5136 40.5136 42.0154 38.6675 42.0154Z" fill="white" stroke="#3103EB" stroke-width="0.937421"/>
<path d="M27.9312 25.2593C27.3144 25.2593 26.8152 25.7584 26.8152 26.3753V26.7408C23.4194 27.2791 20.8125 30.2182 20.8125 33.7632C20.8125 37.6887 24.0057 40.883 27.9312 40.883C31.4762 40.883 34.4162 38.2752 34.9546 34.8791H35.3202C35.937 34.8791 36.4362 34.38 36.4362 33.7632C36.4362 29.0737 32.6207 25.2593 27.9312 25.2593ZM23.0445 33.7632C23.0445 31.4546 24.6592 29.5252 26.8152 29.0171V33.7632C26.8152 34.38 27.3144 34.8791 27.9312 34.8791H32.6785C32.1706 37.036 30.2409 38.651 27.9312 38.651C25.2372 38.651 23.0445 36.4583 23.0445 33.7632ZM29.0472 32.6472V27.5904C31.6137 28.0536 33.6419 30.0817 34.1051 32.6472H29.0472Z" fill="white"/>
</svg>
