<svg width="61" height="61" viewBox="0 0 61 61" fill="none" xmlns="http://www.w3.org/2000/svg">
<path d="M49.7266 3.44775L45.9641 4.69775L42.2141 3.44775L38.4641 4.69775L34.7141 3.44775L30.9641 4.69775L27.2141 3.44775L23.4641 4.69775L19.7141 3.44775L15.9766 4.69775L12.2266 3.44775V58.4478H49.7266V3.44775Z" fill="#F8F8F8"/>
<path d="M38.4766 9.69775H23.4766C22.7862 9.69775 22.2266 10.2574 22.2266 10.9478V13.4478C22.2266 14.1381 22.7862 14.6978 23.4766 14.6978H38.4766C39.1669 14.6978 39.7266 14.1381 39.7266 13.4478V10.9478C39.7266 10.2574 39.1669 9.69775 38.4766 9.69775Z" fill="#C2C2C2"/>
<path d="M43.4766 25.9478C43.145 25.9478 42.8271 26.0794 42.5927 26.3139C42.3583 26.5483 42.2266 26.8662 42.2266 27.1978V39.6978H34.7266V27.1978C34.7266 26.8662 34.5949 26.5483 34.3604 26.3139C34.126 26.0794 33.8081 25.9478 33.4766 25.9478C33.145 25.9478 32.8271 26.0794 32.5927 26.3139C32.3583 26.5483 32.2266 26.8662 32.2266 27.1978V39.6978H24.7266V27.1978C24.7266 26.8662 24.5949 26.5483 24.3604 26.3139C24.126 26.0794 23.8081 25.9478 23.4766 25.9478C23.145 25.9478 22.8271 26.0794 22.5927 26.3139C22.3583 26.5483 22.2266 26.8662 22.2266 27.1978V39.6978H19.7266V27.1978C19.7266 26.8662 19.5949 26.5483 19.3604 26.3139C19.126 26.0794 18.8081 25.9478 18.4766 25.9478C18.145 25.9478 17.8271 26.0794 17.5927 26.3139C17.3583 26.5483 17.2266 26.8662 17.2266 27.1978V40.9478C17.2266 41.2793 17.3583 41.5972 17.5927 41.8316C17.8271 42.0661 18.145 42.1978 18.4766 42.1978H43.4766C43.8081 42.1978 44.126 42.0661 44.3604 41.8316C44.5949 41.5972 44.7266 41.2793 44.7266 40.9478V27.1978C44.7266 26.8662 44.5949 26.5483 44.3604 26.3139C44.126 26.0794 43.8081 25.9478 43.4766 25.9478Z" fill="#C2C2C2"/>
<path d="M49.7266 59.6978H12.2266C11.895 59.6978 11.5771 59.5661 11.3427 59.3317C11.1083 59.0973 10.9766 58.7793 10.9766 58.4478V3.44781C10.9761 3.24905 11.0229 3.05304 11.1133 2.87603C11.2038 2.69902 11.3351 2.54612 11.4964 2.43002C11.6577 2.31391 11.8444 2.23795 12.0409 2.20844C12.2375 2.17892 12.4383 2.19671 12.6266 2.26031L15.9766 3.44781C19.6016 2.19781 19.5891 2.19781 20.1141 2.32281L23.4766 3.44781L26.8391 2.32281C27.3516 2.08531 27.3391 2.19781 30.9766 3.44781C34.6141 2.19781 34.5891 2.19781 35.1266 2.32281L38.4766 3.44781L41.8266 2.32281C42.3391 2.08531 42.3266 2.19781 45.9766 3.44781L49.3391 2.32281C49.5217 2.26299 49.7157 2.24608 49.9059 2.27342C50.0962 2.30076 50.2776 2.3716 50.436 2.48043C50.5944 2.58926 50.7256 2.73316 50.8193 2.90094C50.9131 3.06872 50.9669 3.25586 50.9766 3.44781V58.4478C50.9766 58.7793 50.8449 59.0973 50.6105 59.3317C50.376 59.5661 50.0581 59.6978 49.7266 59.6978ZM13.4766 57.1978H48.4766V5.18531C46.2391 5.92281 46.0891 6.06031 45.5766 5.88531L42.2266 4.76031L38.8641 5.94781C38.3266 6.12281 38.3391 6.03531 34.7141 4.82281C31.0766 6.07281 31.0891 6.07281 30.5641 5.94781L27.2266 4.76031L23.8641 5.94781C23.3391 6.12281 23.3516 6.03531 19.7141 4.82281C16.0891 6.07281 16.1016 6.07281 15.5766 5.94781L13.4766 5.18531V57.1978Z" fill="black"/>
<path d="M28.4766 20.9478H18.4766C18.145 20.9478 17.8271 20.8161 17.5927 20.5816C17.3583 20.3472 17.2266 20.0293 17.2266 19.6978C17.2266 19.3662 17.3583 19.0483 17.5927 18.8139C17.8271 18.5795 18.145 18.4478 18.4766 18.4478H28.4766C28.8081 18.4478 29.126 18.5795 29.3604 18.8139C29.5949 19.0483 29.7266 19.3662 29.7266 19.6978C29.7266 20.0293 29.5949 20.3472 29.3604 20.5816C29.126 20.8161 28.8081 20.9478 28.4766 20.9478ZM43.4766 53.4478H33.4766C33.145 53.4478 32.8271 53.3161 32.5927 53.0816C32.3583 52.8472 32.2266 52.5293 32.2266 52.1978C32.2266 51.8662 32.3583 51.5483 32.5927 51.3139C32.8271 51.0794 33.145 50.9478 33.4766 50.9478H43.4766C43.8081 50.9478 44.126 51.0794 44.3604 51.3139C44.5949 51.5483 44.7266 51.8662 44.7266 52.1978C44.7266 52.5293 44.5949 52.8472 44.3604 53.0816C44.126 53.3161 43.8081 53.4478 43.4766 53.4478ZM43.4766 48.4478H38.4766C38.145 48.4478 37.8271 48.3161 37.5927 48.0816C37.3583 47.8472 37.2266 47.5293 37.2266 47.1978C37.2266 46.8662 37.3583 46.5483 37.5927 46.3139C37.8271 46.0794 38.145 45.9478 38.4766 45.9478H43.4766C43.8081 45.9478 44.126 46.0794 44.3604 46.3139C44.5949 46.5483 44.7266 46.8662 44.7266 47.1978C44.7266 47.5293 44.5949 47.8472 44.3604 48.0816C44.126 48.3161 43.8081 48.4478 43.4766 48.4478Z" fill="#C2C2C2"/>
<path d="M18.4766 23.4478H43.4766C43.8081 23.4478 44.126 23.5794 44.3604 23.8139C44.5949 24.0483 44.7266 24.3662 44.7266 24.6978V28.4478H17.2266V24.6978C17.2266 24.3662 17.3583 24.0483 17.5927 23.8139C17.8271 23.5794 18.145 23.4478 18.4766 23.4478Z" fill="#ABABAB"/>
</svg>
