<svg width="61" height="61" viewBox="0 0 61 61" fill="none" xmlns="http://www.w3.org/2000/svg">
<g clip-path="url(#clip0_1599_4792)">
<path d="M36.8188 49.0485V55.2985C36.8188 56.2931 36.4238 57.2469 35.7205 57.9502C35.0172 58.6534 34.0634 59.0485 33.0688 59.0485H5.56885C4.57429 59.0485 3.62046 58.6534 2.9172 57.9502C2.21394 57.2469 1.81885 56.2931 1.81885 55.2985V49.0485H36.8188Z" fill="#BFBFBF"/>
<path d="M21.8188 55.2985H16.8188C16.4873 55.2985 16.1694 55.1668 15.935 54.9324C15.7005 54.698 15.5688 54.38 15.5688 54.0485C15.5688 53.717 15.7005 53.3991 15.935 53.1646C16.1694 52.9302 16.4873 52.7985 16.8188 52.7985H21.8188C22.1504 52.7985 22.4683 52.9302 22.7027 53.1646C22.9372 53.3991 23.0688 53.717 23.0688 54.0485C23.0688 54.38 22.9372 54.698 22.7027 54.9324C22.4683 55.1668 22.1504 55.2985 21.8188 55.2985Z" fill="#424242"/>
<path d="M48.0689 17.5235C47.5313 17.0349 46.8634 16.7129 46.1463 16.5968C45.4292 16.4806 44.6938 16.5752 44.0294 16.8692C43.3651 17.1631 42.8004 17.6436 42.404 18.2524C42.0076 18.8612 41.7966 19.5721 41.7966 20.2985C41.7966 21.025 42.0076 21.7358 42.404 22.3446C42.8004 22.9534 43.3651 23.434 44.0294 23.7279C44.6938 24.0218 45.4292 24.1164 46.1463 24.0003C46.8634 23.8841 47.5313 23.5621 48.0689 23.0735C48.6065 23.5621 49.2744 23.8841 49.9915 24.0003C50.7086 24.1164 51.4441 24.0218 52.1084 23.7279C52.7728 23.434 53.3374 22.9534 53.7338 22.3446C54.1302 21.7358 54.3412 21.025 54.3412 20.2985C54.3412 19.5721 54.1302 18.8612 53.7338 18.2524C53.3374 17.6436 52.7728 17.1631 52.1084 16.8692C51.4441 16.5752 50.7086 16.4806 49.9915 16.5968C49.2744 16.7129 48.6065 17.0349 48.0689 17.5235Z" fill="#AAAAAA"/>
<path d="M19.3188 27.7985C22.7706 27.7985 25.5688 25.0003 25.5688 21.5485C25.5688 18.0967 22.7706 15.2985 19.3188 15.2985C15.8671 15.2985 13.0688 18.0967 13.0688 21.5485C13.0688 25.0003 15.8671 27.7985 19.3188 27.7985Z" fill="#BFBFBF"/>
<path d="M25.2063 18.686L20.2063 23.686C20.0895 23.8019 19.951 23.8935 19.7987 23.9557C19.6464 24.0179 19.4833 24.0495 19.3188 24.0485C18.6438 24.0485 18.6063 23.861 15.9313 21.186C15.696 20.9506 15.5637 20.6314 15.5637 20.2985C15.5637 19.9656 15.696 19.6464 15.9313 19.411C16.1667 19.1756 16.486 19.0434 16.8188 19.0434C17.1517 19.0434 17.471 19.1756 17.7063 19.411L19.3188 21.036L23.4313 16.911C23.6667 16.6756 23.986 16.5434 24.3188 16.5434C24.6517 16.5434 24.971 16.6756 25.2063 16.911C25.4417 17.1464 25.5739 17.4656 25.5739 17.7985C25.5739 18.1314 25.4417 18.4506 25.2063 18.686Z" fill="#424242"/>
<path d="M55.5688 10.2985H38.0688V5.29852C38.0688 3.97244 37.5421 2.70067 36.6044 1.76299C35.6667 0.825307 34.3949 0.298523 33.0688 0.298523L5.56885 0.298523C4.24277 0.298523 2.971 0.825307 2.03331 1.76299C1.09563 2.70067 0.568848 3.97244 0.568848 5.29852L0.568848 55.2985C0.568848 56.6246 1.09563 57.8964 2.03331 58.8341C2.971 59.7717 4.24277 60.2985 5.56885 60.2985H33.0688C34.3949 60.2985 35.6667 59.7717 36.6044 58.8341C37.5421 57.8964 38.0688 56.6246 38.0688 55.2985V45.2985H55.5688C56.8949 45.2985 58.1667 44.7717 59.1044 43.8341C60.0421 42.8964 60.5688 41.6246 60.5688 40.2985V15.2985C60.5688 13.9724 60.0421 12.7007 59.1044 11.763C58.1667 10.8253 56.8949 10.2985 55.5688 10.2985ZM35.5688 55.2985C35.5688 55.9616 35.3055 56.5975 34.8366 57.0663C34.3678 57.5351 33.7319 57.7985 33.0688 57.7985H5.56885C4.90581 57.7985 4.26992 57.5351 3.80108 57.0663C3.33224 56.5975 3.06885 55.9616 3.06885 55.2985V50.2985H35.5688V55.2985ZM35.5688 47.7985H3.06885V5.29852C3.06885 4.63548 3.33224 3.9996 3.80108 3.53076C4.26992 3.06191 4.90581 2.79852 5.56885 2.79852H11.8188C11.8188 3.46156 12.0822 4.09745 12.5511 4.56629C13.0199 5.03513 13.6558 5.29852 14.3188 5.29852H24.3188C24.9819 5.29852 25.6178 5.03513 26.0866 4.56629C26.5555 4.09745 26.8188 3.46156 26.8188 2.79852H33.0688C33.7319 2.79852 34.3678 3.06191 34.8366 3.53076C35.3055 3.9996 35.5688 4.63548 35.5688 5.29852V47.7985ZM58.0688 40.2985C58.0688 40.9616 57.8055 41.5975 57.3366 42.0663C56.8678 42.5351 56.2319 42.7985 55.5688 42.7985H38.0688V39.0485H43.0688C43.4004 39.0485 43.7183 38.9168 43.9527 38.6824C44.1872 38.448 44.3188 38.13 44.3188 37.7985C44.3188 37.467 44.1872 37.1491 43.9527 36.9146C43.7183 36.6802 43.4004 36.5485 43.0688 36.5485H38.0688V32.7985H43.0688C43.4004 32.7985 43.7183 32.6668 43.9527 32.4324C44.1872 32.198 44.3188 31.88 44.3188 31.5485C44.3188 31.217 44.1872 30.8991 43.9527 30.6646C43.7183 30.4302 43.4004 30.2985 43.0688 30.2985H38.0688V12.7985H55.5688C56.2319 12.7985 56.8678 13.0619 57.3366 13.5308C57.8055 13.9996 58.0688 14.6355 58.0688 15.2985V40.2985Z" fill="#424242"/>
<path d="M19.019 35.2985C19.216 35.3472 19.4219 35.3472 19.619 35.2985C22.7557 34.52 25.54 32.7107 27.5256 30.1607C29.5112 27.6107 30.5829 24.4678 30.569 21.236V11.5485C30.569 11.217 30.4373 10.899 30.2029 10.6646C29.9684 10.4302 29.6505 10.2985 29.319 10.2985C26.5551 10.3069 23.822 9.71851 21.3065 8.57351C19.7565 7.87351 19.444 7.62351 18.8065 7.91101C15.8821 9.45854 12.6275 10.2776 9.31898 10.2985C8.98746 10.2985 8.66952 10.4302 8.4351 10.6646C8.20068 10.899 8.06898 11.217 8.06898 11.5485V21.236C8.05503 24.4678 9.12677 27.6107 11.1123 30.1607C13.0979 32.7107 15.8823 34.52 19.019 35.2985ZM10.569 12.7985C13.6157 12.6036 16.5918 11.7958 19.319 10.4235C22.0433 11.8033 25.0209 12.6116 28.069 12.7985V21.2735C28.0715 23.8871 27.2171 26.4294 25.6367 28.511C24.0563 30.5926 21.8371 32.0986 19.319 32.7985C16.8009 32.0986 14.5816 30.5926 13.0013 28.511C11.4209 26.4294 10.5665 23.8871 10.569 21.2735V12.7985Z" fill="#424242"/>
<path d="M30.5688 40.2985H8.06885C7.73733 40.2985 7.41938 40.1668 7.18496 39.9324C6.95054 39.698 6.81885 39.38 6.81885 39.0485C6.81885 38.717 6.95054 38.3991 7.18496 38.1646C7.41938 37.9302 7.73733 37.7985 8.06885 37.7985H30.5688C30.9004 37.7985 31.2183 37.9302 31.4527 38.1646C31.6872 38.3991 31.8188 38.717 31.8188 39.0485C31.8188 39.38 31.6872 39.698 31.4527 39.9324C31.2183 40.1668 30.9004 40.2985 30.5688 40.2985ZM30.5688 45.2985H8.06885C7.73733 45.2985 7.41938 45.1668 7.18496 44.9324C6.95054 44.698 6.81885 44.38 6.81885 44.0485C6.81885 43.717 6.95054 43.3991 7.18496 43.1646C7.41938 42.9302 7.73733 42.7985 8.06885 42.7985H30.5688C30.9004 42.7985 31.2183 42.9302 31.4527 43.1646C31.6872 43.3991 31.8188 43.717 31.8188 44.0485C31.8188 44.38 31.6872 44.698 31.4527 44.9324C31.2183 45.1668 30.9004 45.2985 30.5688 45.2985Z" fill="#BFBFBF"/>
</g>
<defs>
<clipPath id="clip0_1599_4792">
<rect width="60" height="60" fill="white" transform="translate(0.569336 0.298462)"/>
</clipPath>
</defs>
</svg>
