<svg width="61" height="61" viewBox="0 0 61 61" fill="none" xmlns="http://www.w3.org/2000/svg">
<path d="M51.7708 13.2395H9.27075C7.19968 13.2395 5.52075 14.9184 5.52075 16.9895V44.4895C5.52075 46.5606 7.19968 48.2395 9.27075 48.2395H51.7708C53.8418 48.2395 55.5208 46.5606 55.5208 44.4895V16.9895C55.5208 14.9184 53.8418 13.2395 51.7708 13.2395Z" fill="#C2C2C2"/>
<path d="M9.27075 16.9895H51.7708V44.4895H9.27075V16.9895ZM3.02075 48.2395H58.0208V51.9895C58.0208 52.9841 57.6257 53.9379 56.9224 54.6412C56.2191 55.3444 55.2653 55.7395 54.2708 55.7395H6.77075C5.77619 55.7395 4.82236 55.3444 4.1191 54.6412C3.41584 53.9379 3.02075 52.9841 3.02075 51.9895V48.2395Z" fill="#F8F8F8"/>
<path d="M36.7708 51.9895H24.2708C23.6077 51.9895 22.9718 51.7261 22.503 51.2573C22.0341 50.7884 21.7708 50.1525 21.7708 49.4895H39.2708C39.2708 50.1525 39.0074 50.7884 38.5385 51.2573C38.0697 51.7261 37.4338 51.9895 36.7708 51.9895Z" fill="#C2C2C2"/>
<path d="M48.0208 36.9895H38.0208C37.3304 36.9895 36.7708 37.5491 36.7708 38.2395V40.7395C36.7708 41.4299 37.3304 41.9895 38.0208 41.9895H48.0208C48.7111 41.9895 49.2708 41.4299 49.2708 40.7395V38.2395C49.2708 37.5491 48.7111 36.9895 48.0208 36.9895Z" fill="#ABABAB"/>
<path d="M15.5208 34.4895H13.0208C12.6892 34.4895 12.3713 34.3578 12.1369 34.1234C11.9024 33.889 11.7708 33.571 11.7708 33.2395C11.7708 32.908 11.9024 32.59 12.1369 32.3556C12.3713 32.1212 12.6892 31.9895 13.0208 31.9895H15.5208C15.8523 31.9895 16.1702 32.1212 16.4046 32.3556C16.6391 32.59 16.7708 32.908 16.7708 33.2395C16.7708 33.571 16.6391 33.889 16.4046 34.1234C16.1702 34.3578 15.8523 34.4895 15.5208 34.4895ZM33.0208 34.4895H20.5208C20.1892 34.4895 19.8713 34.3578 19.6369 34.1234C19.4024 33.889 19.2708 33.571 19.2708 33.2395C19.2708 32.908 19.4024 32.59 19.6369 32.3556C19.8713 32.1212 20.1892 31.9895 20.5208 31.9895H33.0208C33.3523 31.9895 33.6702 32.1212 33.9046 32.3556C34.1391 32.59 34.2708 32.908 34.2708 33.2395C34.2708 33.571 34.1391 33.889 33.9046 34.1234C33.6702 34.3578 33.3523 34.4895 33.0208 34.4895ZM15.5208 39.4895H13.0208C12.6892 39.4895 12.3713 39.3578 12.1369 39.1234C11.9024 38.889 11.7708 38.571 11.7708 38.2395C11.7708 37.908 11.9024 37.59 12.1369 37.3556C12.3713 37.1212 12.6892 36.9895 13.0208 36.9895H15.5208C15.8523 36.9895 16.1702 37.1212 16.4046 37.3556C16.6391 37.59 16.7708 37.908 16.7708 38.2395C16.7708 38.571 16.6391 38.889 16.4046 39.1234C16.1702 39.3578 15.8523 39.4895 15.5208 39.4895ZM33.0208 39.4895H20.5208C20.1892 39.4895 19.8713 39.3578 19.6369 39.1234C19.4024 38.889 19.2708 38.571 19.2708 38.2395C19.2708 37.908 19.4024 37.59 19.6369 37.3556C19.8713 37.1212 20.1892 36.9895 20.5208 36.9895H33.0208C33.3523 36.9895 33.6702 37.1212 33.9046 37.3556C34.1391 37.59 34.2708 37.908 34.2708 38.2395C34.2708 38.571 34.1391 38.889 33.9046 39.1234C33.6702 39.3578 33.3523 39.4895 33.0208 39.4895Z" fill="#C2C2C2"/>
<path d="M45.5208 5.7395H15.5208C14.14 5.7395 13.0208 6.85879 13.0208 8.2395V25.7395C13.0208 27.1202 14.14 28.2395 15.5208 28.2395H45.5208C46.9015 28.2395 48.0208 27.1202 48.0208 25.7395V8.2395C48.0208 6.85879 46.9015 5.7395 45.5208 5.7395Z" fill="#F8F8F8"/>
<path d="M58.0208 46.9895H56.0957C56.5364 46.2299 56.7692 45.3677 56.7708 44.4895V16.9895C56.7708 15.6634 56.244 14.3916 55.3063 13.454C54.3686 12.5163 53.0968 11.9895 51.7708 11.9895H49.2708V8.2395C49.2708 7.24494 48.8757 6.29111 48.1724 5.58785C47.4691 4.88459 46.5153 4.4895 45.5208 4.4895H15.5208C14.5262 4.4895 13.5724 4.88459 12.8691 5.58785C12.1658 6.29111 11.7708 7.24494 11.7708 8.2395V11.9895H9.27075C7.94467 11.9895 6.6729 12.5163 5.73522 13.454C4.79754 14.3916 4.27075 15.6634 4.27075 16.9895V44.4895C4.27231 45.3677 4.50512 46.2299 4.94575 46.9895H3.02075C2.68923 46.9895 2.37129 47.1212 2.13687 47.3556C1.90245 47.59 1.77075 47.908 1.77075 48.2395V51.9895C1.77075 53.3156 2.29754 54.5874 3.23522 55.525C4.1729 56.4627 5.44467 56.9895 6.77075 56.9895H54.2708C55.5968 56.9895 56.8686 56.4627 57.8063 55.525C58.744 54.5874 59.2708 53.3156 59.2708 51.9895V48.2395C59.2708 47.908 59.1391 47.59 58.9046 47.3556C58.6702 47.1212 58.3523 46.9895 58.0208 46.9895ZM14.2708 8.2395C14.2708 7.90798 14.4024 7.59004 14.6369 7.35562C14.8713 7.1212 15.1892 6.9895 15.5208 6.9895H45.5208C45.8523 6.9895 46.1702 7.1212 46.4046 7.35562C46.6391 7.59004 46.7708 7.90798 46.7708 8.2395V25.7395C46.7708 26.071 46.6391 26.389 46.4046 26.6234C46.1702 26.8578 45.8523 26.9895 45.5208 26.9895H15.5208C15.1892 26.9895 14.8713 26.8578 14.6369 26.6234C14.4024 26.389 14.2708 26.071 14.2708 25.7395V8.2395ZM6.77075 44.4895V16.9895C6.77075 16.3265 7.03414 15.6906 7.50299 15.2217C7.97183 14.7529 8.60771 14.4895 9.27075 14.4895H11.7708V25.7395C11.7708 26.7341 12.1658 27.6879 12.8691 28.3912C13.5724 29.0944 14.5262 29.4895 15.5208 29.4895H45.5208C46.5153 29.4895 47.4691 29.0944 48.1724 28.3912C48.8757 27.6879 49.2708 26.7341 49.2708 25.7395V14.4895H51.7708C52.4338 14.4895 53.0697 14.7529 53.5385 15.2217C54.0074 15.6906 54.2708 16.3265 54.2708 16.9895V44.4895C54.2708 45.1525 54.0074 45.7884 53.5385 46.2573C53.0697 46.7261 52.4338 46.9895 51.7708 46.9895H9.27075C8.60771 46.9895 7.97183 46.7261 7.50299 46.2573C7.03414 45.7884 6.77075 45.1525 6.77075 44.4895ZM56.7708 51.9895C56.7708 52.6525 56.5074 53.2884 56.0385 53.7573C55.5697 54.2261 54.9338 54.4895 54.2708 54.4895H6.77075C6.10771 54.4895 5.47183 54.2261 5.00299 53.7573C4.53414 53.2884 4.27075 52.6525 4.27075 51.9895V49.4895H56.7708V51.9895Z" fill="black"/>
<path d="M24.2708 10.7395H19.2708C18.5804 10.7395 18.0208 11.2991 18.0208 11.9895V14.4895C18.0208 15.1799 18.5804 15.7395 19.2708 15.7395H24.2708C24.9611 15.7395 25.5208 15.1799 25.5208 14.4895V11.9895C25.5208 11.2991 24.9611 10.7395 24.2708 10.7395Z" fill="#C2C2C2"/>
<path d="M20.5208 24.4895H18.0208C17.6892 24.4895 17.3713 24.3578 17.1369 24.1234C16.9024 23.889 16.7708 23.571 16.7708 23.2395C16.7708 22.908 16.9024 22.59 17.1369 22.3556C17.3713 22.1212 17.6892 21.9895 18.0208 21.9895H20.5208C20.8523 21.9895 21.1702 22.1212 21.4046 22.3556C21.6391 22.59 21.7708 22.908 21.7708 23.2395C21.7708 23.571 21.6391 23.889 21.4046 24.1234C21.1702 24.3578 20.8523 24.4895 20.5208 24.4895ZM28.0208 24.4895H25.5208C25.1892 24.4895 24.8713 24.3578 24.6369 24.1234C24.4024 23.889 24.2708 23.571 24.2708 23.2395C24.2708 22.908 24.4024 22.59 24.6369 22.3556C24.8713 22.1212 25.1892 21.9895 25.5208 21.9895H28.0208C28.3523 21.9895 28.6702 22.1212 28.9046 22.3556C29.1391 22.59 29.2708 22.908 29.2708 23.2395C29.2708 23.571 29.1391 23.889 28.9046 24.1234C28.6702 24.3578 28.3523 24.4895 28.0208 24.4895ZM35.5208 24.4895H33.0208C32.6892 24.4895 32.3713 24.3578 32.1369 24.1234C31.9024 23.889 31.7708 23.571 31.7708 23.2395C31.7708 22.908 31.9024 22.59 32.1369 22.3556C32.3713 22.1212 32.6892 21.9895 33.0208 21.9895H35.5208C35.8523 21.9895 36.1702 22.1212 36.4046 22.3556C36.6391 22.59 36.7708 22.908 36.7708 23.2395C36.7708 23.571 36.6391 23.889 36.4046 24.1234C36.1702 24.3578 35.8523 24.4895 35.5208 24.4895ZM43.0208 24.4895H40.5208C40.1892 24.4895 39.8713 24.3578 39.6369 24.1234C39.4024 23.889 39.2708 23.571 39.2708 23.2395C39.2708 22.908 39.4024 22.59 39.6369 22.3556C39.8713 22.1212 40.1892 21.9895 40.5208 21.9895H43.0208C43.3523 21.9895 43.6702 22.1212 43.9046 22.3556C44.1391 22.59 44.2708 22.908 44.2708 23.2395C44.2708 23.571 44.1391 23.889 43.9046 24.1234C43.6702 24.3578 43.3523 24.4895 43.0208 24.4895ZM39.2708 11.0895C38.8912 10.8643 38.4587 10.7436 38.0174 10.7396C37.576 10.7357 37.1415 10.8486 36.758 11.067C36.3744 11.2854 36.0555 11.6015 35.8337 11.9831C35.6119 12.3646 35.495 12.7981 35.495 13.2395C35.495 13.6809 35.6119 14.1144 35.8337 14.496C36.0555 14.8775 36.3744 15.1936 36.758 15.412C37.1415 15.6304 37.576 15.7434 38.0174 15.7394C38.4587 15.7355 38.8912 15.6147 39.2708 15.3895C39.6503 15.6147 40.0828 15.7355 40.5241 15.7394C40.9655 15.7434 41.4 15.6304 41.7836 15.412C42.1671 15.1936 42.486 14.8775 42.7078 14.496C42.9296 14.1144 43.0465 13.6809 43.0465 13.2395C43.0465 12.7981 42.9296 12.3646 42.7078 11.9831C42.486 11.6015 42.1671 11.2854 41.7836 11.067C41.4 10.8486 40.9655 10.7357 40.5241 10.7396C40.0828 10.7436 39.6503 10.8643 39.2708 11.0895Z" fill="#C2C2C2"/>
</svg>
