<svg width="61" height="61" viewBox="0 0 61 61" fill="none" xmlns="http://www.w3.org/2000/svg">
<path d="M15.9766 13.2395H58.4766V40.7395C58.4766 41.7341 58.0815 42.6879 57.3782 43.3912C56.6749 44.0944 55.7211 44.4895 54.7266 44.4895H19.7266C18.732 44.4895 17.7782 44.0944 17.0749 43.3912C16.3717 42.6879 15.9766 41.7341 15.9766 40.7395V13.2395Z" fill="#C2C2C2"/>
<path d="M19.7266 5.7395H54.7266C55.7211 5.7395 56.6749 6.13459 57.3782 6.83785C58.0815 7.54111 58.4766 8.49494 58.4766 9.4895V13.2395H15.9766V9.4895C15.9766 8.49494 16.3717 7.54111 17.0749 6.83785C17.7782 6.13459 18.732 5.7395 19.7266 5.7395ZM37.2266 16.9895C36.895 16.9895 36.5771 17.1212 36.3427 17.3556C36.1083 17.59 35.9766 17.908 35.9766 18.2395C35.9766 18.571 36.1083 18.889 36.3427 19.1234C36.5771 19.3578 36.895 19.4895 37.2266 19.4895C39.2469 19.487 41.2058 20.1836 42.7709 21.4613C44.336 22.7389 45.4107 24.5187 45.8126 26.4986C46.2146 28.4786 45.919 30.5366 44.976 32.3234C44.0331 34.1102 42.5009 35.5156 40.6395 36.3011C38.7782 37.0866 36.7023 37.2037 34.7644 36.6327C32.8264 36.0617 31.1458 34.8376 30.0078 33.1683C28.8698 31.499 28.3444 29.4873 28.521 27.4747C28.6976 25.4621 29.5652 23.5726 30.9766 22.127V24.4895C30.9766 24.821 31.1083 25.139 31.3427 25.3734C31.5771 25.6078 31.895 25.7395 32.2266 25.7395C32.5581 25.7395 32.876 25.6078 33.1104 25.3734C33.3449 25.139 33.4766 24.821 33.4766 24.4895C33.5715 22.7908 33.5715 21.0882 33.4766 19.3895C33.4514 19.0756 33.3086 18.7828 33.0769 18.5696C32.8451 18.3564 32.5415 18.2385 32.2266 18.2395H27.2266C26.895 18.2395 26.5771 18.3712 26.3427 18.6056C26.1083 18.84 25.9766 19.158 25.9766 19.4895C25.9766 19.821 26.1083 20.139 26.3427 20.3734C26.5771 20.6078 26.895 20.7395 27.2266 20.7395H28.8766C27.1583 22.6606 26.1518 25.1134 26.0254 27.6877C25.899 30.262 26.6603 32.8016 28.1821 34.8818C29.7039 36.962 31.8938 38.4565 34.3855 39.1155C36.8772 39.7745 39.5196 39.5579 41.8708 38.502C44.222 37.4461 46.1393 35.6149 47.302 33.3147C48.4647 31.0145 48.8024 28.3848 48.2585 25.8654C47.7146 23.3461 46.3222 21.0899 44.3141 19.4742C42.3059 17.8586 39.8039 16.9814 37.2266 16.9895Z" fill="#F8F8F8"/>
<path d="M43.4766 30.7395H5.97656C4.59585 30.7395 3.47656 31.8588 3.47656 33.2395V55.7395C3.47656 57.1202 4.59585 58.2395 5.97656 58.2395H43.4766C44.8573 58.2395 45.9766 57.1202 45.9766 55.7395V33.2395C45.9766 31.8588 44.8573 30.7395 43.4766 30.7395Z" fill="#F8F8F8"/>
<path d="M54.7266 4.4895H49.7266V3.2395C49.7266 2.90798 49.5949 2.59004 49.3604 2.35562C49.126 2.1212 48.8081 1.9895 48.4766 1.9895C48.145 1.9895 47.8271 2.1212 47.5927 2.35562C47.3583 2.59004 47.2266 2.90798 47.2266 3.2395V4.4895H27.2266V3.2395C27.2266 2.90798 27.0949 2.59004 26.8604 2.35562C26.626 2.1212 26.3081 1.9895 25.9766 1.9895C25.645 1.9895 25.3271 2.1212 25.0927 2.35562C24.8583 2.59004 24.7266 2.90798 24.7266 3.2395V4.4895H19.7266C18.4005 4.4895 17.1287 5.01629 16.191 5.95397C15.2533 6.89165 14.7266 8.16342 14.7266 9.4895V29.4895H5.97656C4.982 29.4895 4.02817 29.8846 3.32491 30.5879C2.62165 31.2911 2.22656 32.2449 2.22656 33.2395V55.7395C2.22656 56.7341 2.62165 57.6879 3.32491 58.3912C4.02817 59.0944 4.982 59.4895 5.97656 59.4895H43.4766C44.4711 59.4895 45.4249 59.0944 46.1282 58.3912C46.8315 57.6879 47.2266 56.7341 47.2266 55.7395V45.7395H54.7266C56.0526 45.7395 57.3244 45.2127 58.2621 44.275C59.1998 43.3374 59.7266 42.0656 59.7266 40.7395V9.4895C59.7266 8.16342 59.1998 6.89165 58.2621 5.95397C57.3244 5.01629 56.0526 4.4895 54.7266 4.4895ZM17.2266 9.4895C17.2266 8.82646 17.49 8.19058 17.9588 7.72174C18.4276 7.25289 19.0635 6.9895 19.7266 6.9895H24.7266V8.2395C24.7266 8.57102 24.8583 8.88896 25.0927 9.12339C25.3271 9.35781 25.645 9.4895 25.9766 9.4895C26.3081 9.4895 26.626 9.35781 26.8604 9.12339C27.0949 8.88896 27.2266 8.57102 27.2266 8.2395V6.9895H47.2266V8.2395C47.2266 8.57102 47.3583 8.88896 47.5927 9.12339C47.8271 9.35781 48.145 9.4895 48.4766 9.4895C48.8081 9.4895 49.126 9.35781 49.3604 9.12339C49.5949 8.88896 49.7266 8.57102 49.7266 8.2395V6.9895H54.7266C55.3896 6.9895 56.0255 7.25289 56.4943 7.72174C56.9632 8.19058 57.2266 8.82646 57.2266 9.4895V11.9895H17.2266V9.4895ZM44.7266 55.7395C44.7266 56.071 44.5949 56.389 44.3604 56.6234C44.126 56.8578 43.8081 56.9895 43.4766 56.9895H5.97656C5.64504 56.9895 5.3271 56.8578 5.09268 56.6234C4.85826 56.389 4.72656 56.071 4.72656 55.7395V33.2395C4.72656 32.908 4.85826 32.59 5.09268 32.3556C5.3271 32.1212 5.64504 31.9895 5.97656 31.9895H43.4766C43.8081 31.9895 44.126 32.1212 44.3604 32.3556C44.5949 32.59 44.7266 32.908 44.7266 33.2395V55.7395ZM57.2266 40.7395C57.2266 41.4025 56.9632 42.0384 56.4943 42.5073C56.0255 42.9761 55.3896 43.2395 54.7266 43.2395H47.2266V33.2395C47.2266 32.2449 46.8315 31.2911 46.1282 30.5879C45.4249 29.8846 44.4711 29.4895 43.4766 29.4895H17.2266V14.4895H57.2266V40.7395Z" fill="black"/>
<path d="M17.2266 35.7395H9.72656C9.03621 35.7395 8.47656 36.2991 8.47656 36.9895V40.7395C8.47656 41.4299 9.03621 41.9895 9.72656 41.9895H17.2266C17.9169 41.9895 18.4766 41.4299 18.4766 40.7395V36.9895C18.4766 36.2991 17.9169 35.7395 17.2266 35.7395Z" fill="#ABABAB"/>
<path d="M10.9766 49.4896H8.47656C8.14504 49.4896 7.8271 49.3579 7.59268 49.1235C7.35826 48.8891 7.22656 48.5711 7.22656 48.2396C7.22656 47.9081 7.35826 47.5901 7.59268 47.3557C7.8271 47.1213 8.14504 46.9896 8.47656 46.9896H10.9766C11.3081 46.9896 11.626 47.1213 11.8604 47.3557C12.0949 47.5901 12.2266 47.9081 12.2266 48.2396C12.2266 48.5711 12.0949 48.8891 11.8604 49.1235C11.626 49.3579 11.3081 49.4896 10.9766 49.4896ZM18.4766 49.4896H15.9766C15.645 49.4896 15.3271 49.3579 15.0927 49.1235C14.8583 48.8891 14.7266 48.5711 14.7266 48.2396C14.7266 47.9081 14.8583 47.5901 15.0927 47.3557C15.3271 47.1213 15.645 46.9896 15.9766 46.9896H18.4766C18.8081 46.9896 19.126 47.1213 19.3604 47.3557C19.5949 47.5901 19.7266 47.9081 19.7266 48.2396C19.7266 48.5711 19.5949 48.8891 19.3604 49.1235C19.126 49.3579 18.8081 49.4896 18.4766 49.4896ZM25.9766 49.4896H23.4766C23.145 49.4896 22.8271 49.3579 22.5927 49.1235C22.3583 48.8891 22.2266 48.5711 22.2266 48.2396C22.2266 47.9081 22.3583 47.5901 22.5927 47.3557C22.8271 47.1213 23.145 46.9896 23.4766 46.9896H25.9766C26.3081 46.9896 26.626 47.1213 26.8604 47.3557C27.0949 47.5901 27.2266 47.9081 27.2266 48.2396C27.2266 48.5711 27.0949 48.8891 26.8604 49.1235C26.626 49.3579 26.3081 49.4896 25.9766 49.4896ZM20.9766 54.4896H8.47656C8.14504 54.4896 7.8271 54.3579 7.59268 54.1235C7.35826 53.889 7.22656 53.5711 7.22656 53.2396C7.22656 52.9081 7.35826 52.5901 7.59268 52.3557C7.8271 52.1213 8.14504 51.9896 8.47656 51.9896H20.9766C21.3081 51.9896 21.626 52.1213 21.8604 52.3557C22.0949 52.5901 22.2266 52.9081 22.2266 53.2396C22.2266 53.5711 22.0949 53.889 21.8604 54.1235C21.626 54.3579 21.3081 54.4896 20.9766 54.4896ZM34.2641 43.4396C34.033 43.4402 33.8062 43.3767 33.609 43.2562C33.4118 43.1357 33.2519 42.9629 33.147 42.757C33.0421 42.5511 32.9963 42.3201 33.0148 42.0898C33.0333 41.8594 33.1152 41.6387 33.2516 41.4521C33.3967 41.2428 33.4745 40.9943 33.4745 40.7396C33.4745 40.4849 33.3967 40.2363 33.2516 40.0271C33.1547 39.8941 33.085 39.7434 33.0464 39.5835C33.0078 39.4236 33.0011 39.2576 33.0266 39.0951C33.0522 38.9326 33.1095 38.7767 33.1952 38.6364C33.281 38.496 33.3936 38.3739 33.5266 38.2771C33.6595 38.1802 33.8103 38.1105 33.9702 38.0719C34.1301 38.0333 34.296 38.0266 34.4585 38.0521C34.621 38.0777 34.7769 38.135 34.9173 38.2208C35.0576 38.3065 35.1797 38.4191 35.2766 38.5521C35.7344 39.1896 35.9807 39.9547 35.9807 40.7396C35.9807 41.5245 35.7344 42.2896 35.2766 42.9271C35.1602 43.0863 35.0078 43.2158 34.8318 43.3049C34.6558 43.3939 34.4613 43.4401 34.2641 43.4396ZM38.3266 46.3396C38.0955 46.3402 37.8687 46.2767 37.6715 46.1562C37.4743 46.0357 37.3144 45.8629 37.2095 45.657C37.1046 45.4511 37.0588 45.2201 37.0773 44.9898C37.0958 44.7594 37.1777 44.5387 37.3141 44.3521C38.0621 43.296 38.4638 42.0337 38.4638 40.7396C38.4638 39.4454 38.0621 38.1832 37.3141 37.1271C37.2172 36.9941 37.1475 36.8434 37.1089 36.6835C37.0703 36.5236 37.0636 36.3576 37.0891 36.1951C37.1147 36.0326 37.172 35.8767 37.2577 35.7364C37.3435 35.596 37.4561 35.4739 37.5891 35.3771C37.722 35.2802 37.8728 35.2105 38.0327 35.1719C38.1926 35.1333 38.3585 35.1266 38.521 35.1521C38.6835 35.1777 38.8394 35.235 38.9798 35.3208C39.1201 35.4065 39.2422 35.5191 39.3391 35.6521C40.3998 37.1364 40.9701 38.9152 40.9701 40.7396C40.9701 42.564 40.3998 44.3428 39.3391 45.8271C39.2227 45.9863 39.0703 46.1158 38.8943 46.2049C38.7183 46.2939 38.5238 46.3401 38.3266 46.3396Z" fill="#C2C2C2"/>
<path d="M29.7266 41.9895C30.4169 41.9895 30.9766 41.4299 30.9766 40.7395C30.9766 40.0491 30.4169 39.4895 29.7266 39.4895C29.0362 39.4895 28.4766 40.0491 28.4766 40.7395C28.4766 41.4299 29.0362 41.9895 29.7266 41.9895Z" fill="#C2C2C2"/>
</svg>
