<svg width="61" height="61" viewBox="0 0 61 61" fill="none" xmlns="http://www.w3.org/2000/svg">
<g clip-path="url(#clip0_1599_4812)">
<path d="M27.8688 51.7569H13.0688C12.0743 51.7569 11.1205 51.3618 10.4172 50.6585C9.71394 49.9553 9.31885 49.0014 9.31885 48.0069V41.7569H27.8688C27.1761 43.3328 26.8184 45.0354 26.8184 46.7569C26.8184 48.4783 27.1761 50.181 27.8688 51.7569Z" fill="#BFBFBF"/>
<path d="M35.5688 46.7569V44.2569C35.5688 43.2623 35.9639 42.3085 36.6672 41.6052C37.3705 40.902 38.3243 40.5069 39.3188 40.5069C40.3134 40.5069 41.2672 40.902 41.9705 41.6052C42.6738 42.3085 43.0688 43.2623 43.0688 44.2569C43.0688 44.5884 43.2005 44.9063 43.435 45.1408C43.6694 45.3752 43.9873 45.5069 44.3188 45.5069C44.6504 45.5069 44.9683 45.3752 45.2027 45.1408C45.4372 44.9063 45.5688 44.5884 45.5688 44.2569C45.5688 42.5993 44.9104 41.0096 43.7383 39.8374C42.5662 38.6653 40.9765 38.0069 39.3188 38.0069C37.6612 38.0069 36.0715 38.6653 34.8994 39.8374C33.7273 41.0096 33.0688 42.5993 33.0688 44.2569V46.7569C33.0688 47.0884 33.2005 47.4063 33.435 47.6408C33.6694 47.8752 33.9873 48.0069 34.3188 48.0069C34.6504 48.0069 34.9683 47.8752 35.2027 47.6408C35.4372 47.4063 35.5688 47.0884 35.5688 46.7569Z" fill="#AAAAAA"/>
<path d="M40.569 47.2444V44.2569C40.569 43.9253 40.4373 43.6074 40.2028 43.373C39.9684 43.1386 39.6505 43.0069 39.319 43.0069C38.9874 43.0069 38.6695 43.1386 38.4351 43.373C38.2007 43.6074 38.069 43.9253 38.069 44.2569V47.2444C38.0703 47.6571 37.9693 48.0638 37.7752 48.428C37.5811 48.7923 37.2998 49.1028 36.9565 49.3319L34.8815 50.7194C34.6598 50.8683 34.4916 51.0843 34.4017 51.3358C34.3117 51.5873 34.3046 51.8609 34.3815 52.1167C34.4584 52.3725 34.6151 52.5969 34.8288 52.7571C35.0425 52.9173 35.3019 53.0048 35.569 53.0069C36.094 53.0069 36.1815 52.8569 38.344 51.4069C39.0289 50.9499 39.5904 50.3308 39.9785 49.6047C40.3667 48.8785 40.5695 48.0677 40.569 47.2444ZM44.319 48.0069C43.9874 48.0069 43.6695 48.1386 43.4351 48.373C43.2007 48.6074 43.069 48.9253 43.069 49.2569C43.069 50.2514 42.6739 51.2053 41.9706 51.9085C41.2674 52.6118 40.3135 53.0069 39.319 53.0069C38.9874 53.0069 38.6695 53.1386 38.4351 53.373C38.2007 53.6074 38.069 53.9253 38.069 54.2569C38.069 54.5884 38.2007 54.9063 38.4351 55.1408C38.6695 55.3752 38.9874 55.5069 39.319 55.5069C40.9766 55.5069 42.5663 54.8484 43.7384 53.6763C44.9105 52.5042 45.569 50.9145 45.569 49.2569C45.569 48.9253 45.4373 48.6074 45.2028 48.373C44.9684 48.1386 44.6505 48.0069 44.319 48.0069Z" fill="#AAAAAA"/>
<path d="M43.0688 33.5443V5.50684C43.0688 4.18075 42.5421 2.90898 41.6044 1.9713C40.6667 1.03362 39.3949 0.506836 38.0688 0.506836L13.0688 0.506836C11.7428 0.506836 10.471 1.03362 9.53331 1.9713C8.59563 2.90898 8.06885 4.18075 8.06885 5.50684V48.0068C8.06885 49.3329 8.59563 50.6047 9.53331 51.5424C10.471 52.48 11.7428 53.0068 13.0688 53.0068H27.0813C28.1162 55.0439 29.6425 56.791 31.5221 58.0902C33.4017 59.3893 35.5754 60.1996 37.8468 60.4478C40.1182 60.6959 42.4156 60.3741 44.5314 59.5115C46.6472 58.6488 48.5147 57.2725 49.965 55.5069C51.4153 53.7413 52.4028 51.6422 52.8382 49.3991C53.2736 47.1561 53.1431 44.8399 52.4586 42.66C51.7741 40.48 50.5572 38.505 48.9178 36.9134C47.2783 35.3219 45.2681 34.164 43.0688 33.5443ZM13.0688 3.00684H18.0688C18.0688 3.66988 18.3322 4.30576 18.8011 4.7746C19.2699 5.24344 19.9058 5.50684 20.5688 5.50684H30.5688C31.2319 5.50684 31.8678 5.24344 32.3366 4.7746C32.8055 4.30576 33.0688 3.66988 33.0688 3.00684H38.0688C38.7319 3.00684 39.3678 3.27023 39.8366 3.73907C40.3055 4.20791 40.5688 4.84379 40.5688 5.50684V33.0693C37.8351 32.8211 35.0897 33.3969 32.686 34.7224C30.2823 36.0479 28.3303 38.0625 27.0813 40.5068H10.5688V5.50684C10.5688 4.84379 10.8322 4.20791 11.3011 3.73907C11.7699 3.27023 12.4058 3.00684 13.0688 3.00684ZM13.0688 50.5068C12.4058 50.5068 11.7699 50.2434 11.3011 49.7746C10.8322 49.3058 10.5688 48.6699 10.5688 48.0068V43.0068H26.1063C25.8654 43.8223 25.7062 44.6598 25.6313 45.5068H23.0688C22.7373 45.5068 22.4194 45.6385 22.185 45.873C21.9505 46.1074 21.8188 46.4253 21.8188 46.7568C21.8188 47.0884 21.9505 47.4063 22.185 47.6407C22.4194 47.8751 22.7373 48.0068 23.0688 48.0068H25.6313C25.7062 48.8539 25.8654 49.6913 26.1063 50.5068H13.0688ZM39.3188 58.0068C37.0938 58.0068 34.9187 57.347 33.0687 56.1109C31.2186 54.8747 29.7767 53.1177 28.9252 51.062C28.0737 49.0064 27.8509 46.7444 28.285 44.5621C28.7191 42.3798 29.7906 40.3752 31.3639 38.8019C32.9372 37.2285 34.9418 36.1571 37.1241 35.723C39.3064 35.2889 41.5684 35.5117 43.624 36.3632C45.6797 37.2147 47.4367 38.6566 48.6729 40.5067C49.909 42.3567 50.5688 44.5318 50.5688 46.7568C50.5688 48.2342 50.2779 49.6971 49.7125 51.062C49.1471 52.4269 48.3185 53.6671 47.2738 54.7118C46.2291 55.7564 44.9889 56.5851 43.624 57.1505C42.2591 57.7158 40.7962 58.0068 39.3188 58.0068Z" fill="#424242"/>
<path d="M32.7526 19.5434L32.6789 19.6444L32.7526 19.5434L27.1667 15.4647C26.5874 15.0417 25.8008 15.0417 25.2215 15.4647L19.6356 19.5434C19.2108 19.8535 18.9597 20.3476 18.9597 20.8733V27.969C18.9597 28.8789 19.6978 29.6162 20.6082 29.6162H31.78C32.6904 29.6162 33.4285 28.8789 33.4285 27.969V20.8733C33.4285 20.3476 33.1773 19.8535 32.7526 19.5434ZM25.9682 16.4859L25.9682 16.4859C26.1027 16.3877 26.2855 16.3877 26.42 16.4859L26.42 16.4859L32.0059 20.5646C32.1046 20.6367 32.1628 20.7514 32.1628 20.8733V27.969C32.1628 28.1801 31.9916 28.3514 31.78 28.3514H28.8582V24.9209C28.8582 23.4496 27.6654 22.2568 26.1941 22.2568C24.7228 22.2568 23.53 23.4496 23.53 24.9209V28.3514H20.6082C20.3966 28.3514 20.2253 28.1801 20.2253 27.969V20.8733C20.2253 20.7514 20.2836 20.6367 20.3823 20.5646L25.9682 16.4859ZM24.7957 24.9209C24.7957 24.1485 25.4217 23.5225 26.1941 23.5225C26.9665 23.5225 27.5925 24.1485 27.5925 24.9209V28.3506H24.7957V24.9209Z" fill="black" stroke="black" stroke-width="0.25"/>
</g>
<defs>
<clipPath id="clip0_1599_4812">
<rect width="60" height="60" fill="white" transform="translate(0.569336 0.506821)"/>
</clipPath>
</defs>
</svg>
