<svg width="61" height="61" viewBox="0 0 61 61" fill="none" xmlns="http://www.w3.org/2000/svg">
<path d="M20.5208 49.6978C20.1892 49.6978 19.8713 49.5661 19.6369 49.3316C19.4024 49.0972 19.2708 48.7793 19.2708 48.4478V47.1978C19.2708 46.8662 19.4024 46.5483 19.6369 46.3139C19.8713 46.0794 20.1892 45.9478 20.5208 45.9478C20.8523 45.9478 21.1702 46.0794 21.4046 46.3139C21.6391 46.5483 21.7708 46.8662 21.7708 47.1978V48.4478C21.7708 48.7793 21.6391 49.0972 21.4046 49.3316C21.1702 49.5661 20.8523 49.6978 20.5208 49.6978Z" fill="#F8F8F8"/>
<path d="M34.2708 3.44775H6.77075C4.69968 3.44775 3.02075 5.12669 3.02075 7.19775V54.6978C3.02075 56.7688 4.69968 58.4478 6.77075 58.4478H34.2708C36.3418 58.4478 38.0208 56.7688 38.0208 54.6978V7.19775C38.0208 5.12669 36.3418 3.44775 34.2708 3.44775Z" fill="#C2C2C2"/>
<path d="M6.77075 7.19775H34.2708V54.6978H6.77075V7.19775Z" fill="#F8F8F8"/>
<path d="M24.2708 9.69775H16.7708C16.1077 9.69775 15.4718 9.43436 15.003 8.96552C14.5341 8.49668 14.2708 7.8608 14.2708 7.19775H26.7708C26.7708 7.8608 26.5074 8.49668 26.0385 8.96552C25.5697 9.43436 24.9338 9.69775 24.2708 9.69775ZM58.0208 22.1978L40.5208 32.1978L23.0208 22.1978C23.0208 21.2032 23.4158 20.2494 24.1191 19.5461C24.8224 18.8428 25.7762 18.4478 26.7708 18.4478H54.2708C55.2653 18.4478 56.2191 18.8428 56.9224 19.5461C57.6257 20.2494 58.0208 21.2032 58.0208 22.1978Z" fill="#C2C2C2"/>
<path d="M58.0208 22.1978V39.6978C58.0208 40.6923 57.6257 41.6461 56.9224 42.3494C56.2191 43.0527 55.2653 43.4478 54.2708 43.4478H26.7708C25.7762 43.4478 24.8224 43.0527 24.1191 42.3494C23.4158 41.6461 23.0208 40.6923 23.0208 39.6978V22.1978L40.5208 32.1978L58.0208 22.1978Z" fill="#F8F8F8"/>
<path d="M44.2708 14.6978C44.6023 14.6978 44.9202 14.5661 45.1546 14.3316C45.3891 14.0972 45.5208 13.7793 45.5208 13.4478V8.44775C45.5208 8.11623 45.3891 7.79829 45.1546 7.56387C44.9202 7.32945 44.6023 7.19775 44.2708 7.19775C43.9392 7.19775 43.6213 7.32945 43.3869 7.56387C43.1524 7.79829 43.0208 8.11623 43.0208 8.44775V13.4478C43.0208 13.7793 43.1524 14.0972 43.3869 14.3316C43.6213 14.5661 43.9392 14.6978 44.2708 14.6978ZM54.2708 14.6978C54.6023 14.6978 54.9202 14.5661 55.1546 14.3316C55.3891 14.0972 55.5208 13.7793 55.5208 13.4478V8.44775C55.5208 8.11623 55.3891 7.79829 55.1546 7.56387C54.9202 7.32945 54.6023 7.19775 54.2708 7.19775C53.9392 7.19775 53.6213 7.32945 53.3869 7.56387C53.1524 7.79829 53.0208 8.11623 53.0208 8.44775V13.4478C53.0208 13.7793 53.1524 14.0972 53.3869 14.3316C53.6213 14.5661 53.9392 14.6978 54.2708 14.6978ZM49.2708 10.9478C49.6023 10.9478 49.9202 10.8161 50.1546 10.5816C50.3891 10.3472 50.5208 10.0293 50.5208 9.69775V3.44775C50.5208 3.11623 50.3891 2.79829 50.1546 2.56387C49.9202 2.32945 49.6023 2.19775 49.2708 2.19775C48.9392 2.19775 48.6213 2.32945 48.3869 2.56387C48.1524 2.79829 48.0208 3.11623 48.0208 3.44775V9.69775C48.0208 10.0293 48.1524 10.3472 48.3869 10.5816C48.6213 10.8161 48.9392 10.9478 49.2708 10.9478Z" fill="black"/>
<path d="M54.2708 17.1978H39.2708V7.19775C39.2708 5.87167 38.744 4.5999 37.8063 3.66222C36.8686 2.72454 35.5968 2.19775 34.2708 2.19775H6.77075C5.44467 2.19775 4.1729 2.72454 3.23522 3.66222C2.29754 4.5999 1.77075 5.87167 1.77075 7.19775V54.6978C1.77075 56.0238 2.29754 57.2956 3.23522 58.2333C4.1729 59.171 5.44467 59.6978 6.77075 59.6978H34.2708C35.5968 59.6978 36.8686 59.171 37.8063 58.2333C38.744 57.2956 39.2708 56.0238 39.2708 54.6978V44.6978H54.2708C55.5968 44.6978 56.8686 44.171 57.8063 43.2333C58.744 42.2956 59.2708 41.0238 59.2708 39.6978V22.1978C59.2708 20.8717 58.744 19.5999 57.8063 18.6622C56.8686 17.7245 55.5968 17.1978 54.2708 17.1978ZM54.2708 19.6978C54.8149 19.6993 55.3437 19.8784 55.7768 20.2077C56.21 20.5371 56.5238 20.9988 56.6707 21.5228L40.5208 30.7603C36.7708 28.6603 43.8208 32.6353 24.3708 21.5228C24.5177 20.9988 24.8315 20.5371 25.2647 20.2077C25.6978 19.8784 26.2266 19.6993 26.7708 19.6978H54.2708ZM36.7708 54.6978C36.7708 55.3608 36.5074 55.9967 36.0385 56.4655C35.5697 56.9344 34.9338 57.1978 34.2708 57.1978H6.77075C6.10771 57.1978 5.47183 56.9344 5.00299 56.4655C4.53414 55.9967 4.27075 55.3608 4.27075 54.6978V7.19775C4.27075 6.53471 4.53414 5.89883 5.00299 5.42999C5.47183 4.96115 6.10771 4.69775 6.77075 4.69775H34.2708C34.9338 4.69775 35.5697 4.96115 36.0385 5.42999C36.5074 5.89883 36.7708 6.53471 36.7708 7.19775V17.1978H26.7708C25.4447 17.1978 24.1729 17.7245 23.2352 18.6622C22.2975 19.5999 21.7708 20.8717 21.7708 22.1978V39.6978C21.7708 41.0238 22.2975 42.2956 23.2352 43.2333C24.1729 44.171 25.4447 44.6978 26.7708 44.6978H36.7708V54.6978ZM56.7708 39.6978C56.7708 40.3608 56.5074 40.9967 56.0385 41.4655C55.5697 41.9344 54.9338 42.1978 54.2708 42.1978H26.7708C26.1077 42.1978 25.4718 41.9344 25.003 41.4655C24.5341 40.9967 24.2708 40.3608 24.2708 39.6978V24.3603C41.4583 34.1728 40.0583 33.4478 40.5208 33.4478C40.9833 33.4478 39.6458 34.1478 56.7708 24.3603V39.6978Z" fill="black"/>
<path d="M20.5208 52.1978C26.0436 52.1978 30.5208 47.7206 30.5208 42.1978C30.5208 36.6749 26.0436 32.1978 20.5208 32.1978C14.9979 32.1978 10.5208 36.6749 10.5208 42.1978C10.5208 47.7206 14.9979 52.1978 20.5208 52.1978Z" fill="#ABABAB"/>
<path d="M20.5208 43.75C20.1892 43.75 19.8713 43.6183 19.6369 43.3839C19.4024 43.1495 19.2708 42.8315 19.2708 42.5V41.25C19.2708 40.9185 19.4024 40.6005 19.6369 40.3661C19.8713 40.1317 20.1892 40 20.5208 40C20.8523 40 21.1702 40.1317 21.4046 40.3661C21.6391 40.6005 21.7708 40.9185 21.7708 41.25V42.5C21.7708 42.8315 21.6391 43.1495 21.4046 43.3839C21.1702 43.6183 20.8523 43.75 20.5208 43.75Z" fill="#F8F8F8"/>
</svg>
