<svg width="65" height="65" viewBox="0 0 65 65" fill="none" xmlns="http://www.w3.org/2000/svg">
<path d="M51.0251 7.29846C51.0236 5.70765 50.3909 4.18245 49.266 3.05758C48.1412 1.9327 46.616 1.30005 45.0251 1.29846H19.0251C17.4343 1.30005 15.9091 1.9327 14.7843 3.05758C13.6594 4.18245 13.0267 5.70765 13.0251 7.29846V28.2985H10.0251V30.2985H13.0251V57.2985C13.0267 58.8893 13.6594 60.4145 14.7843 61.5393C15.9091 62.6642 17.4343 63.2969 19.0251 63.2985H45.0251C46.616 63.2969 48.1412 62.6642 49.266 61.5393C50.3909 60.4145 51.0236 58.8893 51.0251 57.2985V30.2985H54.0251V28.2985H51.0251V7.29846ZM15.0251 7.29846C15.0251 6.2376 15.4466 5.22018 16.1967 4.47003C16.9469 3.71989 17.9643 3.29846 19.0251 3.29846H45.0251C46.086 3.29846 47.1034 3.71989 47.8536 4.47003C48.6037 5.22018 49.0251 6.2376 49.0251 7.29846V28.2985H47.0251V8.29846C47.0251 7.50281 46.7091 6.73975 46.1465 6.17714C45.5839 5.61453 44.8208 5.29846 44.0251 5.29846H41.0251C40.76 5.29852 40.5056 5.40391 40.3181 5.59146L38.6111 7.29846H26.4391L24.7321 5.59146C24.5447 5.40391 24.2903 5.29852 24.0251 5.29846H20.0251C19.2295 5.29846 18.4664 5.61453 17.9038 6.17714C17.3412 6.73975 17.0251 7.50281 17.0251 8.29846V28.2985H15.0251V7.29846ZM37.0251 57.2985H27.0251V56.2985C27.0251 56.0332 27.1305 55.7789 27.318 55.5914C27.5056 55.4038 27.7599 55.2985 28.0251 55.2985H36.0251C36.2904 55.2985 36.5447 55.4038 36.7323 55.5914C36.9198 55.7789 37.0251 56.0332 37.0251 56.2985V57.2985ZM36.0251 53.2985H28.0251C27.2295 53.2985 26.4664 53.6145 25.9038 54.1771C25.3412 54.7398 25.0251 55.5028 25.0251 56.2985V57.2985H21.0251C20.4947 57.2985 19.986 57.0877 19.6109 56.7127C19.2359 56.3376 19.0251 55.8289 19.0251 55.2985V30.2985H21.0251V39.2985C21.0251 39.5637 21.1305 39.818 21.318 40.0056C21.5056 40.1931 21.7599 40.2985 22.0251 40.2985H42.0251C42.2904 40.2985 42.5447 40.1931 42.7323 40.0056C42.9198 39.818 43.0251 39.5637 43.0251 39.2985V30.2985H45.0251V55.2985C45.0251 55.8289 44.8144 56.3376 44.4394 56.7127C44.0643 57.0877 43.5556 57.2985 43.0251 57.2985H39.0251V56.2985C39.0251 55.5028 38.7091 54.7398 38.1465 54.1771C37.5839 53.6145 36.8208 53.2985 36.0251 53.2985ZM41.0251 28.2985H23.0251V20.2985H41.0251V28.2985ZM41.0251 30.2985V38.2985H23.0251V30.2985H41.0251ZM43.0251 28.2985V19.2985C43.0251 19.0332 42.9198 18.7789 42.7323 18.5914C42.5447 18.4038 42.2904 18.2985 42.0251 18.2985H22.0251C21.7599 18.2985 21.5056 18.4038 21.318 18.5914C21.1305 18.7789 21.0251 19.0332 21.0251 19.2985V28.2985H19.0251V8.29846C19.0251 8.03325 19.1305 7.77889 19.318 7.59136C19.5056 7.40382 19.7599 7.29846 20.0251 7.29846H23.6111L25.3181 9.00546C25.5056 9.19301 25.76 9.29841 26.0251 9.29846H39.0251C39.2903 9.29841 39.5447 9.19301 39.7321 9.00546L41.4391 7.29846H44.0251C44.2904 7.29846 44.5447 7.40382 44.7323 7.59136C44.9198 7.77889 45.0251 8.03325 45.0251 8.29846V28.2985H43.0251ZM49.0251 57.2985C49.0251 58.3593 48.6037 59.3767 47.8536 60.1269C47.1034 60.877 46.086 61.2985 45.0251 61.2985H19.0251C17.9643 61.2985 16.9469 60.877 16.1967 60.1269C15.4466 59.3767 15.0251 58.3593 15.0251 57.2985V30.2985H17.0251V55.2985C17.0251 56.3593 17.4466 57.3767 18.1967 58.1269C18.9469 58.877 19.9643 59.2985 21.0251 59.2985H43.0251C44.086 59.2985 45.1034 58.877 45.8536 58.1269C46.6037 57.3767 47.0251 56.3593 47.0251 55.2985V30.2985H49.0251V57.2985Z" fill="black"/>
<path d="M29.0251 47.2985H27.0251V49.2985H29.0251V47.2985Z" fill="black"/>
<path d="M33.0251 47.2985H31.0251V49.2985H33.0251V47.2985Z" fill="black"/>
<path d="M37.0251 47.2985H35.0251V49.2985H37.0251V47.2985Z" fill="black"/>
<path d="M25.0251 27.2985H29.0251C29.2904 27.2985 29.5447 27.1931 29.7323 27.0056C29.9198 26.818 30.0251 26.5637 30.0251 26.2985V22.2985C30.0251 22.0332 29.9198 21.7789 29.7323 21.5914C29.5447 21.4038 29.2904 21.2985 29.0251 21.2985H25.0251C24.7599 21.2985 24.5056 21.4038 24.318 21.5914C24.1305 21.7789 24.0251 22.0332 24.0251 22.2985V26.2985C24.0251 26.5637 24.1305 26.818 24.318 27.0056C24.5056 27.1931 24.7599 27.2985 25.0251 27.2985ZM26.0251 23.2985H28.0251V25.2985H26.0251V23.2985ZM35.0251 37.2985H39.0251C39.2904 37.2985 39.5447 37.1931 39.7323 37.0056C39.9198 36.818 40.0251 36.5637 40.0251 36.2985V32.2985C40.0251 32.0332 39.9198 31.7789 39.7323 31.5914C39.5447 31.4038 39.2904 31.2985 39.0251 31.2985H35.0251C34.7599 31.2985 34.5056 31.4038 34.318 31.5914C34.1305 31.7789 34.0251 32.0332 34.0251 32.2985V36.2985C34.0251 36.5637 34.1305 36.818 34.318 37.0056C34.5056 37.1931 34.7599 37.2985 35.0251 37.2985ZM36.0251 33.2985H38.0251V35.2985H36.0251V33.2985Z" fill="#BFBFBF"/>
<path d="M33.0251 21.2975H31.0251V27.2985H33.0251V21.2975Z" fill="black"/>
<path d="M38.0251 27.2985H40.0251V22.2985C40.0251 22.0332 39.9198 21.7789 39.7323 21.5914C39.5447 21.4038 39.2904 21.2985 39.0251 21.2985H34.0251V23.2985H38.0251V27.2985Z" fill="black"/>
<path d="M37.0251 25.2985H34.0251V27.2985H37.0251V25.2985Z" fill="black"/>
<path d="M30.0241 31.2985H24.0251V33.2985H30.0241V31.2985Z" fill="black"/>
<path d="M33.0251 31.2985H31.0251V33.2985H33.0251V31.2985Z" fill="black"/>
<path d="M33.0251 34.2985H28.0251V36.2985H33.0251V34.2985Z" fill="black"/>
<path d="M26.0251 34.2985H24.0251V36.2985H26.0251V34.2985Z" fill="black"/>
<path d="M58.0251 28.2985H56.0251V30.2985H58.0251V28.2985Z" fill="black"/>
<path d="M8.02515 28.2985H6.02515V30.2985H8.02515V28.2985Z" fill="black"/>
</svg>
