<svg width="61" height="61" viewBox="0 0 61 61" fill="none" xmlns="http://www.w3.org/2000/svg">
<path d="M54.7266 2.65613H27.2266C25.1555 2.65613 23.4766 4.33506 23.4766 6.40613V53.9061C23.4766 55.9772 25.1555 57.6561 27.2266 57.6561H54.7266C56.7976 57.6561 58.4766 55.9772 58.4766 53.9061V6.40613C58.4766 4.33506 56.7976 2.65613 54.7266 2.65613Z" fill="#C2C2C2"/>
<path d="M27.2266 6.40613H54.7266V53.9061H27.2266V6.40613Z" fill="#F8F8F8"/>
<path d="M44.7266 8.90613H37.2266C36.5635 8.90613 35.9276 8.64274 35.4588 8.1739C34.99 7.70505 34.7266 7.06917 34.7266 6.40613H47.2266C47.2266 7.06917 46.9632 7.70505 46.4943 8.1739C46.0255 8.64274 45.3896 8.90613 44.7266 8.90613Z" fill="#C2C2C2"/>
<path d="M5.97656 22.6561H23.4766V50.1561H5.97656C5.31352 50.1561 4.67764 49.8927 4.2088 49.4239C3.73995 48.9551 3.47656 48.3192 3.47656 47.6561V25.1561C3.47656 24.4931 3.73995 23.8572 4.2088 23.3884C4.67764 22.9195 5.31352 22.6561 5.97656 22.6561Z" fill="#F8F8F8"/>
<path d="M54.7266 1.40613H27.2266C25.9005 1.40613 24.6287 1.93291 23.691 2.87059C22.7533 3.80828 22.2266 5.08005 22.2266 6.40613V21.4061H5.97656C4.982 21.4061 4.02817 21.8012 3.32491 22.5045C2.62165 23.2077 2.22656 24.1616 2.22656 25.1561V47.6561C2.22656 48.6507 2.62165 49.6045 3.32491 50.3078C4.02817 51.011 4.982 51.4061 5.97656 51.4061H22.2266V53.9061C22.2266 55.2322 22.7533 56.504 23.691 57.4417C24.6287 58.3793 25.9005 58.9061 27.2266 58.9061H54.7266C56.0526 58.9061 57.3244 58.3793 58.2621 57.4417C59.1998 56.504 59.7266 55.2322 59.7266 53.9061V6.40613C59.7266 5.08005 59.1998 3.80828 58.2621 2.87059C57.3244 1.93291 56.0526 1.40613 54.7266 1.40613ZM5.97656 48.9061C5.64504 48.9061 5.3271 48.7744 5.09268 48.54C4.85826 48.3056 4.72656 47.9876 4.72656 47.6561V25.1561C4.72656 24.8246 4.85826 24.5067 5.09268 24.2722C5.3271 24.0378 5.64504 23.9061 5.97656 23.9061H22.2266V48.9061H5.97656ZM57.2266 53.9061C57.2266 54.5692 56.9632 55.2051 56.4943 55.6739C56.0255 56.1427 55.3896 56.4061 54.7266 56.4061H27.2266C26.5635 56.4061 25.9276 56.1427 25.4588 55.6739C24.99 55.2051 24.7266 54.5692 24.7266 53.9061V6.40613C24.7266 5.74309 24.99 5.1072 25.4588 4.63836C25.9276 4.16952 26.5635 3.90613 27.2266 3.90613H54.7266C55.3896 3.90613 56.0255 4.16952 56.4943 4.63836C56.9632 5.1072 57.2266 5.74309 57.2266 6.40613V53.9061Z" fill="black"/>
<path d="M17.2266 27.6561H9.72656C9.03621 27.6561 8.47656 28.2158 8.47656 28.9061V32.6561C8.47656 33.3465 9.03621 33.9061 9.72656 33.9061H17.2266C17.9169 33.9061 18.4766 33.3465 18.4766 32.6561V28.9061C18.4766 28.2158 17.9169 27.6561 17.2266 27.6561Z" fill="#C2C2C2"/>
<path d="M10.9766 41.4061H8.47656C8.14504 41.4061 7.8271 41.2744 7.59268 41.04C7.35826 40.8056 7.22656 40.4876 7.22656 40.1561C7.22656 39.8246 7.35826 39.5067 7.59268 39.2722C7.8271 39.0378 8.14504 38.9061 8.47656 38.9061H10.9766C11.3081 38.9061 11.626 39.0378 11.8604 39.2722C12.0949 39.5067 12.2266 39.8246 12.2266 40.1561C12.2266 40.4876 12.0949 40.8056 11.8604 41.04C11.626 41.2744 11.3081 41.4061 10.9766 41.4061ZM18.4766 41.4061H15.9766C15.645 41.4061 15.3271 41.2744 15.0927 41.04C14.8583 40.8056 14.7266 40.4876 14.7266 40.1561C14.7266 39.8246 14.8583 39.5067 15.0927 39.2722C15.3271 39.0378 15.645 38.9061 15.9766 38.9061H18.4766C18.8081 38.9061 19.126 39.0378 19.3604 39.2722C19.5949 39.5067 19.7266 39.8246 19.7266 40.1561C19.7266 40.4876 19.5949 40.8056 19.3604 41.04C19.126 41.2744 18.8081 41.4061 18.4766 41.4061ZM44.7266 48.9061H37.2266C36.5635 48.9061 35.9276 48.6427 35.4588 48.1739C34.99 47.7051 34.7266 47.0692 34.7266 46.4061C34.7266 45.7431 34.99 45.1072 35.4588 44.6384C35.9276 44.1695 36.5635 43.9061 37.2266 43.9061H44.7266C45.3896 43.9061 46.0255 44.1695 46.4943 44.6384C46.9632 45.1072 47.2266 45.7431 47.2266 46.4061C47.2266 47.0692 46.9632 47.7051 46.4943 48.1739C46.0255 48.6427 45.3896 48.9061 44.7266 48.9061Z" fill="#C2C2C2"/>
<path d="M49.7265 34.3811C49.7282 34.6475 49.6769 34.9116 49.5758 35.158C49.4746 35.4045 49.3255 35.6284 49.1371 35.8167C48.9487 36.0051 48.7248 36.1542 48.4784 36.2554C48.232 36.3566 47.9679 36.4078 47.7015 36.4061H34.2515C33.907 36.4059 33.5682 36.3177 33.2673 36.15C32.9664 35.9823 32.7132 35.7406 32.5317 35.4478C32.3502 35.1549 32.2465 34.8206 32.2303 34.4765C32.2141 34.1323 32.2859 33.7898 32.439 33.4811L39.164 20.0186C39.3352 19.6853 39.5949 19.4057 39.9147 19.2104C40.2344 19.0152 40.6019 18.9119 40.9765 18.9119C41.3512 18.9119 41.7186 19.0152 42.0384 19.2104C42.3581 19.4057 42.6179 19.6853 42.789 20.0186C50.0765 34.5936 49.7265 33.7061 49.7265 34.3811Z" fill="#ABABAB"/>
<path d="M40.9766 30.1561C40.645 30.1561 40.3271 30.0244 40.0927 29.79C39.8583 29.5556 39.7266 29.2376 39.7266 28.9061V25.1561C39.7266 24.8246 39.8583 24.5067 40.0927 24.2722C40.3271 24.0378 40.645 23.9061 40.9766 23.9061C41.3081 23.9061 41.626 24.0378 41.8604 24.2722C42.0949 24.5067 42.2266 24.8246 42.2266 25.1561V28.9061C42.2266 29.2376 42.0949 29.5556 41.8604 29.79C41.626 30.0244 41.3081 30.1561 40.9766 30.1561Z" fill="#F8F8F8"/>
<path d="M40.9766 33.9061C41.6669 33.9061 42.2266 33.3465 42.2266 32.6561C42.2266 31.9658 41.6669 31.4061 40.9766 31.4061C40.2862 31.4061 39.7266 31.9658 39.7266 32.6561C39.7266 33.3465 40.2862 33.9061 40.9766 33.9061Z" fill="#F8F8F8"/>
</svg>
