<svg width="61" height="61" viewBox="0 0 61 61" fill="none" xmlns="http://www.w3.org/2000/svg">
<g clip-path="url(#clip0_1599_4784)">
<path d="M15.0251 36.7568H6.27515V41.7568H15.0251V36.7568Z" fill="#BFBFBF"/>
<path d="M58.7751 59.2568H51.2751L47.5251 19.2568H55.0251L58.7751 59.2568Z" fill="#BFBFBF"/>
<path d="M48.7751 20.5068C48.4436 20.5068 48.1257 20.3751 47.8913 20.1407C47.6568 19.9063 47.5251 19.5884 47.5251 19.2568V10.5068C47.5251 8.51771 46.735 6.61006 45.3284 5.20354C43.9219 3.79701 42.0143 3.00684 40.0251 3.00684C38.036 3.00684 36.1284 3.79701 34.7218 5.20354C33.3153 6.61006 32.5251 8.51771 32.5251 10.5068V19.2568C32.5251 19.5884 32.3935 19.9063 32.159 20.1407C31.9246 20.3751 31.6067 20.5068 31.2751 20.5068C30.9436 20.5068 30.6257 20.3751 30.3913 20.1407C30.1568 19.9063 30.0251 19.5884 30.0251 19.2568V10.5068C30.0251 7.85467 31.0787 5.31113 32.9541 3.43577C34.8294 1.5604 37.373 0.506836 40.0251 0.506836C42.6773 0.506836 45.2208 1.5604 47.0962 3.43577C48.9716 5.31113 50.0251 7.85467 50.0251 10.5068V19.2568C50.0251 19.5884 49.8935 19.9063 49.659 20.1407C49.4246 20.3751 49.1067 20.5068 48.7751 20.5068Z" fill="#BFBFBF"/>
<path d="M56.2751 19.1443C56.247 18.8327 56.103 18.5429 55.8715 18.3323C55.6401 18.1217 55.3381 18.0055 55.0251 18.0068H17.5251C17.2122 18.0055 16.9102 18.1217 16.6788 18.3323C16.4473 18.5429 16.3033 18.8327 16.2751 19.1443L15.2126 30.5068H3.77515C2.78058 30.5068 1.82676 30.9019 1.1235 31.6052C0.420235 32.3084 0.0251465 33.2623 0.0251465 34.2568L0.0251465 51.7568C0.0251465 52.7514 0.420235 53.7052 1.1235 54.4085C1.82676 55.1117 2.78058 55.5068 3.77515 55.5068H12.8751L12.5251 59.1443C12.5095 59.3177 12.5302 59.4924 12.586 59.6573C12.6417 59.8222 12.7313 59.9736 12.849 60.1019C12.9667 60.2301 13.1098 60.3324 13.2693 60.4021C13.4288 60.4719 13.6011 60.5075 13.7751 60.5068H58.7751C58.9492 60.5075 59.1215 60.4719 59.281 60.4021C59.4405 60.3324 59.5836 60.2301 59.7013 60.1019C59.819 59.9736 59.9086 59.8222 59.9643 59.6573C60.0201 59.4924 60.0408 59.3177 60.0251 59.1443L56.2751 19.1443ZM3.77515 53.0068C3.44363 53.0068 3.12568 52.8751 2.89126 52.6407C2.65684 52.4063 2.52515 52.0883 2.52515 51.7568V34.2568C2.52515 33.9253 2.65684 33.6074 2.89126 33.3729C3.12568 33.1385 3.44363 33.0068 3.77515 33.0068H33.7751C34.1067 33.0068 34.4246 33.1385 34.659 33.3729C34.8935 33.6074 35.0251 33.9253 35.0251 34.2568V51.7568C35.0251 52.0883 34.8935 52.4063 34.659 52.6407C34.4246 52.8751 34.1067 53.0068 33.7751 53.0068H3.77515ZM15.1501 58.0068L15.3876 55.5068H33.7751C34.7697 55.5068 35.7235 55.1117 36.4268 54.4085C37.1301 53.7052 37.5251 52.7514 37.5251 51.7568V34.2568C37.5251 33.2623 37.1301 32.3084 36.4268 31.6052C35.7235 30.9019 34.7697 30.5068 33.7751 30.5068H17.7251L18.6626 20.5068H46.3876L49.9001 58.0068H15.1501ZM52.4126 58.0068L48.9001 20.5068H53.9001L57.4001 58.0068H52.4126Z" fill="black"/>
<path d="M15.0251 43.0068H6.27515C5.94363 43.0068 5.62568 42.8751 5.39126 42.6407C5.15684 42.4063 5.02515 42.0884 5.02515 41.7568V36.7568C5.02515 36.4253 5.15684 36.1074 5.39126 35.873C5.62568 35.6385 5.94363 35.5068 6.27515 35.5068H15.0251C15.3567 35.5068 15.6746 35.6385 15.909 35.873C16.1434 36.1074 16.2751 36.4253 16.2751 36.7568V41.7568C16.2751 42.0884 16.1434 42.4063 15.909 42.6407C15.6746 42.8751 15.3567 43.0068 15.0251 43.0068ZM7.52515 40.5068H13.7751V38.0068H7.52515V40.5068Z" fill="black"/>
<path d="M27.5251 44.8943C27.0609 44.5461 26.5088 44.3341 25.9308 44.2819C25.3528 44.2298 24.7717 44.3397 24.2526 44.5992C23.7335 44.8588 23.297 45.2577 22.9919 45.7514C22.6868 46.2451 22.5251 46.814 22.5251 47.3943C22.5251 47.9747 22.6868 48.5436 22.9919 49.0372C23.297 49.5309 23.7335 49.9299 24.2526 50.1894C24.7717 50.4489 25.3528 50.5588 25.9308 50.5067C26.5088 50.4546 27.0609 50.2425 27.5251 49.8943C27.9894 50.2425 28.5415 50.4546 29.1195 50.5067C29.6975 50.5588 30.2786 50.4489 30.7977 50.1894C31.3168 49.9299 31.7533 49.5309 32.0584 49.0372C32.3635 48.5436 32.5251 47.9747 32.5251 47.3943C32.5251 46.814 32.3635 46.2451 32.0584 45.7514C31.7533 45.2577 31.3168 44.8588 30.7977 44.5992C30.2786 44.3397 29.6975 44.2298 29.1195 44.2819C28.5415 44.3341 27.9894 44.5461 27.5251 44.8943Z" fill="#AAAAAA"/>
<path d="M18.7751 50.5068H6.27515C5.94363 50.5068 5.62568 50.3751 5.39126 50.1407C5.15684 49.9063 5.02515 49.5884 5.02515 49.2568C5.02515 48.9253 5.15684 48.6074 5.39126 48.373C5.62568 48.1385 5.94363 48.0068 6.27515 48.0068H18.7751C19.1067 48.0068 19.4246 48.1385 19.659 48.373C19.8934 48.6074 20.0251 48.9253 20.0251 49.2568C20.0251 49.5884 19.8934 49.9063 19.659 50.1407C19.4246 50.3751 19.1067 50.5068 18.7751 50.5068ZM41.2751 25.5068C40.9436 25.5068 40.6257 25.3751 40.3913 25.1407C40.1568 24.9063 40.0251 24.5884 40.0251 24.2568V10.5068C40.0251 8.51771 39.235 6.61006 37.8284 5.20354C36.4219 3.79701 34.5143 3.00684 32.5251 3.00684C30.536 3.00684 28.6284 3.79701 27.2218 5.20354C25.8153 6.61006 25.0251 8.51771 25.0251 10.5068V24.2568C25.0251 24.5884 24.8935 24.9063 24.659 25.1407C24.4246 25.3751 24.1067 25.5068 23.7751 25.5068C23.4436 25.5068 23.1257 25.3751 22.8913 25.1407C22.6568 24.9063 22.5251 24.5884 22.5251 24.2568V10.5068C22.5251 7.85467 23.5787 5.31113 25.4541 3.43577C27.3294 1.5604 29.873 0.506836 32.5251 0.506836C35.1773 0.506836 37.7209 1.5604 39.5962 3.43577C41.4716 5.31113 42.5251 7.85467 42.5251 10.5068V24.2568C42.5251 24.5884 42.3935 24.9063 42.159 25.1407C41.9246 25.3751 41.6067 25.5068 41.2751 25.5068Z" fill="#BFBFBF"/>
</g>
<defs>
<clipPath id="clip0_1599_4784">
<rect width="60" height="60" fill="white" transform="translate(0.0251465 0.506821)"/>
</clipPath>
</defs>
</svg>
